<?xml version="1.0" encoding="utf-8"?>
<!-- Generator: Adobe Illustrator 19.0.0, SVG Export Plug-In . SVG Version: 6.00 Build 0)  -->
<!DOCTYPE svg PUBLIC "-//W3C//DTD SVG 1.1//EN" "http://www.w3.org/Graphics/SVG/1.1/DTD/svg11.dtd">
<svg version="1.1" id="Layer_1" xmlns="http://www.w3.org/2000/svg" xmlns:xlink="http://www.w3.org/1999/xlink" x="0px" y="0px"
	 viewBox="0 0 100 60" enable-background="new 0 0 100 60" xml:space="preserve">
<g>
	<polygon fill="#E30520" points="69.9,60.1 71.5,60 73,59.9 74.5,59.7 76,59.5 77.4,59.1 78.9,58.7 80.3,58.2 81.6,57.7 83,57.1 
		84.3,56.4 85.5,55.7 86.7,54.9 87.9,54.1 89.1,53.2 90.2,52.3 91.2,51.3 92.2,50.2 93.1,49.1 94,48 94.9,46.8 95.6,45.6 96.4,44.3 
		97,43 97.6,41.7 98.2,40.3 98.6,38.9 99.1,37.5 99.4,36 99.7,34.6 99.8,33.1 100,31.5 100,30 100,28.4 99.8,26.9 99.7,25.4 
		99.4,23.9 99.1,22.5 98.6,21.1 98.2,19.7 97.6,18.3 97,17 96.4,15.7 95.6,14.5 94.9,13.2 94,12.1 93.1,10.9 92.2,9.8 91.2,8.8 
		90.2,7.8 89.1,6.9 87.9,6 86.7,5.1 85.5,4.4 84.3,3.6 83,3 81.6,2.4 80.3,1.8 78.9,1.4 77.4,0.9 76,0.6 74.5,0.3 73,0.2 71.5,0 
		69.9,0 68.4,0 66.8,0.2 65.3,0.3 63.9,0.6 62.4,0.9 61,1.4 59.6,1.8 58.2,2.4 56.9,3 55.6,3.6 54.3,4.4 53.1,5.1 51.9,6 50.8,6.9 
		49.7,7.8 48.7,8.8 47.7,9.8 46.7,10.9 45.8,12.1 45,13.2 44.2,14.5 43.5,15.7 42.8,17 42.3,18.3 41.7,19.7 41.2,21.1 40.8,22.5 
		40.5,23.9 40.2,25.4 40.1,26.9 39.9,28.4 39.9,30 39.9,31.5 40.1,33.1 40.2,34.6 40.5,36 40.8,37.5 41.2,38.9 41.7,40.3 42.3,41.7 
		42.8,43 43.5,44.3 44.2,45.6 45,46.8 45.8,48 46.7,49.1 47.7,50.2 48.7,51.3 49.7,52.3 50.8,53.2 51.9,54.1 53.1,54.9 54.3,55.7 
		55.6,56.4 56.9,57.1 58.2,57.7 59.6,58.2 61,58.7 62.4,59.1 63.9,59.5 65.3,59.7 66.8,59.9 68.4,60 	"/>
	<polygon fill="#0080C2" points="30.1,60.1 31.6,60 33.2,59.9 34.7,59.7 36.1,59.5 37.6,59.1 39,58.7 40.4,58.2 41.8,57.7 
		43.1,57.1 44.4,56.4 45.7,55.7 46.9,54.9 48.1,54.1 49.2,53.2 50.3,52.3 51.3,51.3 52.3,50.2 53.3,49.1 54.2,48 55,46.8 55.8,45.6 
		56.5,44.3 57.2,43 57.8,41.7 58.3,40.3 58.8,38.9 59.2,37.5 59.5,36 59.8,34.6 59.9,33.1 60.1,31.5 60.1,30 60.1,28.4 59.9,26.9 
		59.8,25.4 59.5,23.9 59.2,22.5 58.8,21.1 58.3,19.7 57.8,18.3 57.2,17 56.5,15.7 55.8,14.5 55,13.2 54.2,12.1 53.3,10.9 52.3,9.8 
		51.3,8.8 50.3,7.8 49.2,6.9 48.1,6 46.9,5.1 45.7,4.4 44.4,3.6 43.1,3 41.8,2.4 40.4,1.8 39,1.4 37.6,0.9 36.1,0.6 34.7,0.3 
		33.2,0.2 31.6,0 30.1,0 28.5,0 27,0.2 25.5,0.3 24,0.6 22.6,0.9 21.1,1.4 19.7,1.8 18.4,2.4 17,3 15.7,3.6 14.5,4.4 13.3,5.1 
		12.1,6 10.9,6.9 9.8,7.8 8.8,8.8 7.8,9.8 6.9,10.9 6,12.1 5.1,13.2 4.4,14.5 3.6,15.7 3,17 2.4,18.3 1.8,19.7 1.4,21.1 0.9,22.5 
		0.6,23.9 0.3,25.4 0.2,26.9 0,28.4 0,30 0,31.5 0.2,33.1 0.3,34.6 0.6,36 0.9,37.5 1.4,38.9 1.8,40.3 2.4,41.7 3,43 3.6,44.3 
		4.4,45.6 5.1,46.8 6,48 6.9,49.1 7.8,50.2 8.8,51.3 9.8,52.3 10.9,53.2 12.1,54.1 13.3,54.9 14.5,55.7 15.7,56.4 17,57.1 
		18.4,57.7 19.7,58.2 21.1,58.7 22.6,59.1 24,59.5 25.5,59.7 27,59.9 28.5,60 	"/>
	<polygon fill="#E30520" points="46.3,11.4 61.5,11.4 61.5,9.8 47.8,9.8 	"/>
	<polygon fill="#E30520" points="43.9,15 61.5,15 61.5,13.3 45,13.3 	"/>
	<polygon fill="#E30520" points="42.1,18.6 61.5,18.6 61.5,16.9 42.9,16.9 	"/>
	<polygon fill="#E30520" points="41,22.2 61.5,22.2 61.5,20.5 41.5,20.5 	"/>
	<polygon fill="#E30520" points="40.2,25.7 61.5,25.7 61.5,24 40.5,24 	"/>
	<polygon fill="#E30520" points="40,32.6 61.5,32.6 61.5,30.9 39.9,30.9 	"/>
	<polygon fill="#E30520" points="40.6,36.4 61.5,36.4 61.5,34.7 40.2,34.7 	"/>
	<polygon fill="#E30520" points="41.6,39.4 61.5,39.4 61.5,37.8 41.1,37.8 	"/>
	<polygon fill="#E30520" points="43.1,43.1 61.5,43.1 61.5,41.5 42.3,41.5 	"/>
	<polygon fill="#E30520" points="45.2,46.9 61.5,46.9 61.5,45.2 44.1,45.2 	"/>
	<polygon fill="#E30520" points="47.9,50.5 61.4,50.5 61.4,48.8 46.4,48.8 	"/>
	<g>
		<g>
			<polygon fill="#E30520" points="95.1,48.4 95.1,48.2 95.3,47.9 95.5,47.7 95.7,47.5 95.9,47.4 96.2,47.3 96.5,47.3 96.8,47.3 
				97.1,47.4 97.3,47.5 97.5,47.7 97.7,47.9 97.8,48.2 97.9,48.4 97.6,48.4 97.6,48.2 97.5,48 97.3,47.8 97.2,47.7 97,47.6 
				96.7,47.5 96.5,47.5 96.3,47.5 96,47.6 95.8,47.7 95.7,47.8 95.5,48 95.4,48.2 95.4,48.4 			"/>
			<polygon fill="#E30520" points="96,48.4 96,48.1 96.5,48.1 96.7,48.1 96.8,48.1 96.9,48.1 97,48.2 97,48.2 97.1,48.3 97.1,48.3 
				97.1,48.4 96.9,48.4 96.9,48.4 96.8,48.4 96.8,48.3 96.8,48.3 96.8,48.3 96.7,48.2 96.7,48.2 96.6,48.2 96.5,48.2 96.2,48.2 
				96.2,48.4 			"/>
			<polygon fill="#E30520" points="95,48.7 95.1,48.4 95.1,48.4 95.4,48.4 95.3,48.5 95.3,48.7 			"/>
			<polygon fill="#E30520" points="96,48.7 96,48.4 96.2,48.4 96.2,48.6 96.5,48.6 96.6,48.6 96.7,48.6 96.7,48.6 96.8,48.6 
				96.8,48.6 96.8,48.5 96.9,48.5 96.9,48.4 97.1,48.4 97.1,48.4 97.1,48.5 97.1,48.6 97,48.6 97,48.7 			"/>
			<polygon fill="#E30520" points="97.7,48.7 97.6,48.5 97.6,48.4 97.9,48.4 97.9,48.4 98,48.7 			"/>
			<polygon fill="#E30520" points="95,48.7 95,48.7 95.1,49 95.1,49.3 95.3,49.5 95.5,49.8 95.7,49.9 95.9,50 96.2,50.1 96.5,50.2 
				96.8,50.1 97.1,50 97.3,49.9 97.5,49.8 97.7,49.5 97.8,49.3 97.9,49 98,48.7 98,48.7 97.7,48.7 97.7,48.7 97.6,49 97.6,49.2 
				97.5,49.4 97.3,49.6 97.2,49.8 97,49.9 96.7,49.9 96.5,50 96.3,49.9 96,49.9 95.8,49.8 95.7,49.6 95.5,49.4 95.4,49.2 95.3,49 
				95.3,48.7 95.3,48.7 			"/>
			<polygon fill="#E30520" points="96,48.7 96,49.3 96.2,49.3 96.2,48.8 96.5,48.8 96.8,49.3 97.1,49.3 96.7,48.8 96.8,48.8 
				96.9,48.8 96.9,48.7 97,48.7 97,48.7 			"/>
		</g>
	</g>
	<polygon fill="#FFFFFF" points="63.4,27.4 63.2,27.4 63,27.4 62.8,27.4 62.7,27.4 62.5,27.3 62.3,27.3 62.1,27.3 61.9,27.3 
		61.7,27.2 61.5,27.2 61.3,27.2 61,27.2 60.7,27.2 60.4,27.2 60,27.2 59.6,27.2 59.3,27.3 59.1,27.3 58.8,27.4 58.6,27.5 58.4,27.6 
		58.2,27.7 58.1,27.9 57.9,28 57.9,28.2 57.8,28.3 57.8,28.5 57.8,28.7 57.8,28.9 57.9,29.1 58,29.2 58.1,29.4 58.4,29.7 58.7,29.9 
		59.1,30.1 59.6,30.2 60,30.4 60.5,30.5 60.9,30.7 61.4,30.9 61.8,31.1 62.2,31.4 62.6,31.8 62.9,32.2 63.1,32.7 63.3,33.4 
		63.3,34.1 63.3,35 63.1,35.7 63,36.3 62.7,36.8 62.5,37.3 62.1,37.7 61.8,38 61.4,38.3 60.9,38.6 60.5,38.8 60,39 59.5,39.2 
		59,39.3 58.5,39.3 58.1,39.4 57.6,39.4 57.2,39.4 56.6,39.4 56,39.4 55.5,39.4 55,39.4 54.6,39.4 54.2,39.4 53.9,39.3 53.6,39.3 
		53.3,39.3 53,39.2 52.7,39.2 52.5,39.1 52.2,39 52,38.9 51.8,38.9 51.5,38.8 52.1,35.7 52.3,35.7 52.4,35.7 52.6,35.8 52.9,35.9 
		53.1,35.9 53.4,36 53.8,36 54.1,36.1 54.4,36.1 54.8,36.2 55.2,36.2 55.6,36.3 56,36.3 56.4,36.3 56.8,36.3 57.3,36.3 57.7,36.2 
		58,36.1 58.2,35.9 58.4,35.8 58.6,35.6 58.7,35.3 58.8,35.1 58.8,34.9 58.9,34.7 58.9,34.5 58.8,34.3 58.7,34.1 58.6,34 58.5,33.8 
		58.3,33.7 58.1,33.6 57.9,33.5 57.7,33.4 57.4,33.3 57.2,33.2 56.9,33.1 56.7,33 56.4,32.9 56.1,32.7 55.8,32.6 55.5,32.5 
		55.3,32.3 55,32.2 54.7,32 54.5,31.8 54.3,31.6 54.1,31.4 53.9,31.1 53.7,30.9 53.6,30.5 53.5,30.2 53.4,29.9 53.3,29.5 53.3,29 
		53.3,28.6 53.4,28.3 53.4,28 53.5,27.7 53.5,27.5 53.6,27.2 53.6,27 53.7,26.8 53.8,26.5 53.9,26.3 54,26.1 54.2,25.9 54.3,25.7 
		54.5,25.6 54.6,25.4 54.8,25.2 55,25.1 55.2,25 55.4,24.8 55.6,24.7 55.8,24.6 56.1,24.5 56.3,24.4 56.6,24.3 56.9,24.2 57.2,24.2 
		57.6,24.1 57.9,24.1 58.3,24 58.6,24 59,24 59.4,23.9 59.8,23.9 60.4,23.9 60.8,24 61.3,24 61.7,24 62,24 62.3,24 62.6,24.1 
		62.9,24.1 63.1,24.1 63.3,24.1 63.5,24.2 63.6,24.2 63.8,24.2 63.9,24.2 64,24.2 64.1,24.2 	"/>
	<g>
		<g>
			<polyline fill="none" stroke="#FFFFFF" stroke-width="0.215" points="63.4,27.4 63.4,27.4 63.2,27.4 63,27.4 62.8,27.4 
				62.7,27.4 62.5,27.3 62.3,27.3 62.1,27.3 61.9,27.3 61.7,27.2 61.5,27.2 61.3,27.2 61,27.2 60.7,27.2 60.4,27.2 60,27.2 
				59.6,27.2 59.6,27.2 59.3,27.3 59.1,27.3 58.8,27.4 58.6,27.5 58.4,27.6 58.2,27.7 58.1,27.9 57.9,28 57.9,28.2 57.8,28.3 
				57.8,28.5 57.8,28.7 57.8,28.9 57.9,29.1 58,29.2 58.1,29.4 58.1,29.4 58.4,29.7 58.7,29.9 59.1,30.1 59.6,30.2 60,30.4 
				60.5,30.5 60.9,30.7 61.4,30.9 61.8,31.1 62.2,31.4 62.6,31.8 62.9,32.2 63.1,32.7 63.3,33.4 63.3,34.1 63.3,35 63.3,35 
				63.1,35.7 63,36.3 62.7,36.8 62.5,37.3 62.1,37.7 61.8,38 61.4,38.3 60.9,38.6 60.5,38.8 60,39 59.5,39.2 59,39.3 58.5,39.3 
				58.1,39.4 57.6,39.4 57.2,39.4 57.2,39.4 56.6,39.4 56,39.4 55.5,39.4 55,39.4 54.6,39.4 54.2,39.4 53.9,39.3 53.6,39.3 
				53.3,39.3 53,39.2 52.7,39.2 52.5,39.1 52.2,39 52,38.9 51.8,38.9 51.5,38.8 52.1,35.7 52.1,35.7 52.3,35.7 52.4,35.7 52.6,35.8 
				52.9,35.9 53.1,35.9 53.4,36 53.8,36 54.1,36.1 54.4,36.1 54.8,36.2 55.2,36.2 55.6,36.3 56,36.3 56.4,36.3 56.8,36.3 57.3,36.3 
				57.3,36.3 57.7,36.2 58,36.1 58.2,35.9 58.4,35.8 58.6,35.6 58.7,35.3 58.8,35.1 58.8,34.9 58.8,34.9 58.9,34.7 58.9,34.5 
				58.8,34.3 58.7,34.1 58.6,34 58.5,33.8 58.3,33.7 58.1,33.6 57.9,33.5 57.7,33.4 57.4,33.3 57.2,33.2 56.9,33.1 56.7,33 
				56.4,32.9 56.1,32.7 55.8,32.6 55.5,32.5 55.3,32.3 55,32.2 54.7,32 54.5,31.8 54.3,31.6 54.1,31.4 53.9,31.1 53.7,30.9 
				53.6,30.5 53.5,30.2 53.4,29.9 53.3,29.5 53.3,29 53.3,28.6 53.3,28.6 53.4,28.3 53.4,28 53.5,27.7 53.5,27.5 53.6,27.2 53.6,27 
				53.7,26.8 53.8,26.5 53.9,26.3 54,26.1 54.2,25.9 54.3,25.7 54.5,25.6 54.6,25.4 54.8,25.2 55,25.1 55.2,25 55.4,24.8 55.6,24.7 
				55.8,24.6 56.1,24.5 56.3,24.4 56.6,24.3 56.9,24.2 57.2,24.2 57.6,24.1 57.9,24.1 58.3,24 58.6,24 59,24 59.4,23.9 59.8,23.9 
				59.8,23.9 60.4,23.9 60.8,24 61.3,24 61.7,24 62,24 62.3,24 62.6,24.1 62.9,24.1 63.1,24.1 63.3,24.1 63.5,24.2 63.6,24.2 
				63.8,24.2 63.9,24.2 64,24.2 64.1,24.2 63.4,27.4 			"/>
		</g>
	</g>
	<polygon fill="#FFFFFF" points="66.7,20.8 70.6,20.8 70,24.3 72.5,24.3 71.9,27.4 69.4,27.4 68.1,35.3 68.1,35.4 68.1,35.6 
		68.1,35.7 68.1,35.8 68.2,35.9 68.3,36 68.3,36.1 68.4,36.2 68.6,36.2 68.7,36.3 68.8,36.3 69,36.3 69.1,36.4 69.3,36.4 69.4,36.4 
		69.6,36.4 69.9,36.4 70.2,36.4 70.5,36.3 70.7,36.3 70.8,36.2 71,36.2 71.1,36.1 71.1,36.1 70.7,38.8 70.6,38.9 70.5,38.9 70.4,39 
		70.3,39 70.1,39.1 70,39.1 69.9,39.1 69.8,39.2 69.6,39.2 69.5,39.3 69.3,39.3 69.1,39.3 68.9,39.3 68.8,39.4 68.5,39.4 68.3,39.4 
		67.2,39.4 66.7,39.4 66.2,39.3 65.7,39.3 65.3,39.1 65,39 64.7,38.9 64.5,38.7 64.3,38.5 64.2,38.3 64.1,38.1 64,37.8 63.9,37.6 
		63.9,37.3 63.9,37 64,36.6 64,36.3 	"/>
	<g>
		<g>
			<polyline fill="none" stroke="#FFFFFF" stroke-width="0.215" points="66.7,20.8 70.6,20.8 70,24.3 72.5,24.3 71.9,27.4 
				69.4,27.4 68.1,35.3 68.1,35.3 68.1,35.4 68.1,35.6 68.1,35.7 68.1,35.8 68.2,35.9 68.3,36 68.3,36.1 68.4,36.2 68.6,36.2 
				68.7,36.3 68.8,36.3 69,36.3 69.1,36.4 69.3,36.4 69.4,36.4 69.6,36.4 69.6,36.4 69.9,36.4 70.2,36.4 70.5,36.3 70.7,36.3 
				70.8,36.2 71,36.2 71.1,36.1 71.1,36.1 70.7,38.8 70.7,38.8 70.6,38.9 70.5,38.9 70.4,39 70.3,39 70.1,39.1 70,39.1 69.9,39.1 
				69.8,39.2 69.6,39.2 69.5,39.3 69.3,39.3 69.1,39.3 68.9,39.3 68.8,39.4 68.5,39.4 68.3,39.4 67.2,39.4 67.2,39.4 66.7,39.4 
				66.2,39.3 65.7,39.3 65.3,39.1 65,39 64.7,38.9 64.5,38.7 64.3,38.5 64.2,38.3 64.1,38.1 64,37.8 63.9,37.6 63.9,37.3 63.9,37 
				64,36.6 64,36.3 66.7,20.8 			"/>
		</g>
	</g>
	<polygon fill="#FFFFFF" points="42.5,32.8 42.5,33.1 42.5,33.3 42.5,33.6 42.6,33.8 42.6,34.1 42.8,34.4 42.9,34.6 43.1,34.9 
		43.2,35.1 43.5,35.3 43.7,35.5 43.9,35.7 44.2,35.9 44.5,36 44.8,36.1 45.1,36.2 45.4,36.2 45.8,36.3 46.2,36.3 46.5,36.3 
		46.9,36.4 47.3,36.4 47.6,36.3 48,36.3 48.4,36.2 48.8,36.2 49.2,36.1 49.6,35.9 50,35.8 50.4,35.6 50.8,35.4 51.2,35.2 50.6,38.7 
		50.4,38.8 50.1,38.9 49.9,39 49.7,39.1 49.5,39.1 49.3,39.2 49.1,39.3 48.8,39.3 48.6,39.3 48.3,39.4 48,39.4 47.7,39.4 47.3,39.4 
		46.9,39.4 46.5,39.4 46,39.4 45.6,39.4 45.3,39.4 44.9,39.4 44.6,39.4 44.2,39.3 43.9,39.2 43.5,39.2 43.2,39.1 42.8,39 42.5,38.9 
		42.1,38.7 41.8,38.6 41.5,38.4 41.2,38.2 40.9,38 40.6,37.8 40.3,37.6 40,37.3 39.8,37.1 39.5,36.8 39.3,36.4 39.1,36.1 38.9,35.7 
		38.8,35.4 38.6,34.9 38.5,34.5 38.5,34.1 38.4,33.6 38.4,33 38.4,32.5 38.4,31.9 38.4,31.3 38.5,31.1 38.5,30.9 38.5,30.7 
		38.6,30.4 38.6,30.1 38.7,29.9 38.8,29.6 38.8,29.3 38.9,29 39.1,28.7 39.2,28.4 39.3,28.1 39.5,27.8 39.6,27.5 39.8,27.2 40,26.9 
		40.3,26.6 40.5,26.3 40.8,26 41,25.8 41.3,25.5 41.7,25.3 42,25 42.4,24.8 42.8,24.7 43.2,24.5 43.6,24.3 44.1,24.2 44.6,24.1 
		45.2,24.1 45.7,24 46.3,24 46.6,24 46.9,24 47.1,24 47.4,24.1 47.7,24.1 48,24.2 48.3,24.2 48.6,24.3 48.9,24.4 49.2,24.5 
		49.4,24.6 49.7,24.8 50,24.9 50.2,25.1 50.4,25.3 50.7,25.5 50.9,25.7 51.1,26 51.3,26.2 51.5,26.5 51.6,26.8 51.8,27.2 51.9,27.5 
		52,27.9 52,28.3 52.1,28.8 52.1,29.2 52.1,29.7 52.1,30.3 52,30.8 51.9,31.4 51.8,32 51.7,32.9 41.4,32.9 42,30.1 48.2,30.1 
		48.2,29.8 48.2,29.4 48.2,29.1 48.1,28.8 48,28.5 47.9,28.3 47.8,28.1 47.7,27.9 47.5,27.7 47.3,27.5 47.1,27.4 46.9,27.3 
		46.7,27.2 46.4,27.2 46.2,27.2 45.9,27.1 45.7,27.1 45.4,27.2 45.2,27.2 44.9,27.3 44.7,27.4 44.5,27.5 44.3,27.7 44.1,27.9 
		43.9,28.1 43.7,28.3 43.6,28.5 43.5,28.7 43.3,29 43.2,29.3 43.2,29.6 43.1,29.9 	"/>
	<g>
		<g>
			<polyline fill="none" stroke="#FFFFFF" stroke-width="0.215" points="42.5,32.8 42.5,32.8 42.5,33.1 42.5,33.3 42.5,33.6 
				42.6,33.8 42.6,34.1 42.8,34.4 42.9,34.6 43.1,34.9 43.2,35.1 43.5,35.3 43.7,35.5 43.9,35.7 44.2,35.9 44.5,36 44.8,36.1 
				45.1,36.2 45.1,36.2 45.4,36.2 45.8,36.3 46.2,36.3 46.5,36.3 46.9,36.4 47.3,36.4 47.6,36.3 48,36.3 48.4,36.2 48.8,36.2 
				49.2,36.1 49.6,35.9 50,35.8 50.4,35.6 50.8,35.4 51.2,35.2 50.6,38.7 50.6,38.7 50.4,38.8 50.1,38.9 49.9,39 49.7,39.1 
				49.5,39.1 49.3,39.2 49.1,39.3 48.8,39.3 48.6,39.3 48.3,39.4 48,39.4 47.7,39.4 47.3,39.4 46.9,39.4 46.5,39.4 46,39.4 46,39.4 
				45.6,39.4 45.3,39.4 44.9,39.4 44.6,39.4 44.2,39.3 43.9,39.2 43.5,39.2 43.2,39.1 42.8,39 42.5,38.9 42.1,38.7 41.8,38.6 
				41.5,38.4 41.2,38.2 40.9,38 40.6,37.8 40.3,37.6 40,37.3 39.8,37.1 39.5,36.8 39.3,36.4 39.1,36.1 38.9,35.7 38.8,35.4 
				38.6,34.9 38.5,34.5 38.5,34.1 38.4,33.6 38.4,33 38.4,32.5 38.4,31.9 38.4,31.3 38.4,31.3 38.5,31.1 38.5,30.9 38.5,30.7 
				38.6,30.4 38.6,30.1 38.7,29.9 38.8,29.6 38.8,29.3 38.9,29 39.1,28.7 39.2,28.4 39.3,28.1 39.5,27.8 39.6,27.5 39.8,27.2 
				40,26.9 40.3,26.6 40.5,26.3 40.8,26 41,25.8 41.3,25.5 41.7,25.3 42,25 42.4,24.8 42.8,24.7 43.2,24.5 43.6,24.3 44.1,24.2 
				44.6,24.1 45.2,24.1 45.7,24 46.3,24 46.3,24 46.6,24 46.9,24 47.1,24 47.4,24.1 47.7,24.1 48,24.2 48.3,24.2 48.6,24.3 
				48.9,24.4 49.2,24.5 49.4,24.6 49.7,24.8 50,24.9 50.2,25.1 50.4,25.3 50.7,25.5 50.9,25.7 51.1,26 51.3,26.2 51.5,26.5 
				51.6,26.8 51.8,27.2 51.9,27.5 52,27.9 52,28.3 52.1,28.8 52.1,29.2 52.1,29.7 52.1,30.3 52,30.8 51.9,31.4 51.8,32 51.7,32.9 
				41.4,32.9 42,30.1 48.2,30.1 48.2,30.1 48.2,29.8 48.2,29.4 48.2,29.1 48.1,28.8 48,28.5 47.9,28.3 47.8,28.1 47.7,27.9 
				47.5,27.7 47.3,27.5 47.1,27.4 46.9,27.3 46.7,27.2 46.4,27.2 46.2,27.2 45.9,27.1 45.9,27.1 45.7,27.1 45.4,27.2 45.2,27.2 
				44.9,27.3 44.7,27.4 44.5,27.5 44.3,27.7 44.1,27.9 43.9,28.1 43.7,28.3 43.6,28.5 43.5,28.7 43.3,29 43.2,29.3 43.2,29.6 
				43.1,29.9 42.5,32.8 			"/>
		</g>
	</g>
	<polygon fill="#FFFFFF" points="37.1,36.3 36.5,39.4 32.9,39.4 33,39.1 33,38.8 33,38.6 33.1,38.3 33.1,38.1 33.2,37.9 33.2,37.8 
		33.2,37.8 33,38 32.8,38.2 32.5,38.4 32.2,38.6 31.9,38.8 31.6,39 31.2,39.1 30.8,39.3 30.4,39.4 30,39.5 29.6,39.6 29.1,39.6 
		28.7,39.7 28.3,39.7 27.9,39.6 27.5,39.6 27,39.5 26.6,39.3 26.2,39.1 25.8,38.9 25.5,38.7 25.3,38.4 25,38.2 24.8,37.9 24.7,37.6 
		24.5,37.3 24.4,37 24.3,36.6 24.3,36.3 24.2,36 24.2,35.7 24.2,35.4 24.2,34.8 24.3,34.3 24.4,33.8 24.6,33.3 24.9,32.9 25.1,32.5 
		25.4,32.1 25.7,31.7 26.1,31.4 26.5,31.1 26.9,30.8 27.3,30.6 27.8,30.4 28.3,30.2 28.7,30.1 29.2,30 29.2,30 29.3,30 29.4,30 
		29.6,30 29.7,30 29.9,30 30.2,29.9 30.4,29.9 30.6,29.9 30.9,29.9 31.1,29.8 31.3,29.8 31.6,29.8 31.8,29.8 32,29.8 32.1,29.8 
		32.3,29.8 32.5,29.8 32.6,29.8 32.8,29.8 33,29.8 33.1,29.8 33.3,29.8 33.4,29.8 33.6,29.8 33.7,29.8 33.8,29.8 33.9,29.8 34,29.8 
		34.1,29.8 34.1,29.8 34.1,29.8 34.1,29.7 34.2,29.5 34.2,29.2 34.2,29 34.2,28.8 34.2,28.6 34.1,28.5 34.1,28.3 34,28.2 33.9,28 
		33.8,27.9 33.7,27.8 33.6,27.7 33.4,27.6 33.3,27.6 33.1,27.5 33,27.4 32.8,27.4 32.6,27.4 32.5,27.3 32.1,27.3 31.6,27.3 
		31.2,27.4 30.7,27.4 30.3,27.4 29.8,27.5 29.4,27.5 28.9,27.6 28.5,27.6 28.1,27.7 27.7,27.8 27.4,27.8 27.1,27.9 26.8,28 
		26.6,28.1 26.5,28.2 27.5,24.8 27.8,24.7 28.1,24.5 28.4,24.4 28.8,24.3 29.1,24.3 29.5,24.2 29.8,24.2 30.2,24.1 30.6,24.1 
		31,24.1 31.4,24.1 31.9,24.1 32.3,24.1 32.8,24.1 33.3,24.1 33.7,24.1 34.1,24.1 34.6,24.2 35,24.3 35.5,24.4 35.9,24.6 36.4,24.8 
		36.8,25 37.2,25.3 37.5,25.6 37.9,26 38.1,26.4 38.3,26.8 38.5,27.3 38.6,27.8 38.6,28.3 38.5,28.9 	"/>
	<g>
		<g>
			<polyline fill="none" stroke="#FFFFFF" stroke-width="0.215" points="37.1,36.3 36.5,39.4 32.9,39.4 32.9,39.4 33,39.1 33,38.8 
				33,38.6 33.1,38.3 33.1,38.1 33.2,37.9 33.2,37.8 33.2,37.8 33.2,37.8 33,38 32.8,38.2 32.5,38.4 32.2,38.6 31.9,38.8 31.6,39 
				31.2,39.1 30.8,39.3 30.4,39.4 30,39.5 29.6,39.6 29.1,39.6 28.7,39.7 28.3,39.7 27.9,39.6 27.5,39.6 27.5,39.6 27,39.5 
				26.6,39.3 26.2,39.1 25.8,38.9 25.5,38.7 25.3,38.4 25,38.2 24.8,37.9 24.7,37.6 24.5,37.3 24.4,37 24.3,36.6 24.3,36.3 24.2,36 
				24.2,35.7 24.2,35.4 24.2,35.4 24.2,34.8 24.3,34.3 24.4,33.8 24.6,33.3 24.9,32.9 25.1,32.5 25.4,32.1 25.7,31.7 26.1,31.4 
				26.5,31.1 26.9,30.8 27.3,30.6 27.8,30.4 28.3,30.2 28.7,30.1 29.2,30 29.2,30 29.2,30 29.3,30 29.4,30 29.6,30 29.7,30 29.9,30 
				30.2,29.9 30.4,29.9 30.6,29.9 30.9,29.9 31.1,29.8 31.3,29.8 31.6,29.8 31.8,29.8 32,29.8 32.1,29.8 32.1,29.8 32.3,29.8 
				32.5,29.8 32.6,29.8 32.8,29.8 33,29.8 33.1,29.8 33.3,29.8 33.4,29.8 33.6,29.8 33.7,29.8 33.8,29.8 33.9,29.8 34,29.8 
				34.1,29.8 34.1,29.8 34.1,29.8 34.1,29.8 34.1,29.7 34.2,29.5 34.2,29.2 34.2,29 34.2,29 34.2,28.8 34.2,28.6 34.1,28.5 
				34.1,28.3 34,28.2 33.9,28 33.8,27.9 33.7,27.8 33.6,27.7 33.4,27.6 33.3,27.6 33.1,27.5 33,27.4 32.8,27.4 32.6,27.4 32.5,27.3 
				32.5,27.3 32.1,27.3 31.6,27.3 31.2,27.4 30.7,27.4 30.3,27.4 29.8,27.5 29.4,27.5 28.9,27.6 28.5,27.6 28.1,27.7 27.7,27.8 
				27.4,27.8 27.1,27.9 26.8,28 26.6,28.1 26.5,28.2 27.5,24.8 27.5,24.8 27.8,24.7 28.1,24.5 28.4,24.4 28.8,24.3 29.1,24.3 
				29.5,24.2 29.8,24.2 30.2,24.1 30.6,24.1 31,24.1 31.4,24.1 31.9,24.1 32.3,24.1 32.8,24.1 33.3,24.1 33.7,24.1 33.7,24.1 
				34.1,24.1 34.6,24.2 35,24.3 35.5,24.4 35.9,24.6 36.4,24.8 36.8,25 37.2,25.3 37.5,25.6 37.9,26 38.1,26.4 38.3,26.8 38.5,27.3 
				38.6,27.8 38.6,28.3 38.5,28.9 37.1,36.3 			"/>
		</g>
	</g>
	<polygon fill="#0080C2" points="33.6,32.6 33.6,32.5 33.6,32.4 33.5,32.4 33.3,32.4 33.2,32.3 33,32.3 32.8,32.3 32.6,32.3 
		32.4,32.3 32.1,32.4 31.9,32.4 31.7,32.4 31.4,32.5 31.2,32.5 31.1,32.6 30.9,32.6 30.8,32.6 30.7,32.7 30.5,32.7 30.4,32.8 
		30.2,32.9 30,33 29.8,33.1 29.7,33.2 29.5,33.3 29.3,33.5 29.1,33.6 29,33.8 28.8,34 28.7,34.2 28.7,34.4 28.6,34.7 28.6,35.1 
		28.7,35.5 28.8,35.8 29,36 29.2,36.2 29.4,36.3 29.6,36.3 29.9,36.3 30.3,36.3 30.7,36.3 31.1,36.2 31.4,36.1 31.7,36 32,35.9 
		32.2,35.8 32.4,35.6 32.6,35.5 32.7,35.3 32.9,35.1 33,35 33.1,34.8 33.2,34.7 33.2,34.5 33.3,34.3 33.3,34.1 33.4,33.9 33.4,33.7 
		33.5,33.4 33.5,33.2 33.6,33 33.6,32.8 	"/>
	<polygon fill="#FFFFFF" points="7.3,39.4 3.4,39.4 6.7,20.8 13.4,20.8 14,31.9 18.6,20.8 25.6,20.8 22.3,39.4 18.4,39.4 20.9,25.5 
		20.7,25.5 15,39.4 10.7,39.4 10.6,38.8 10.5,37.3 10.4,35.1 10.3,32.6 10.1,30.1 10,27.8 9.9,26.2 9.9,25.5 9.8,25.5 9.8,25.5 
		9.8,25.5 9.7,25.5 9.7,25.5 9.7,25.5 9.7,25.5 9.7,25.5 	"/>
	<g>
		<g>
			<polyline fill="none" stroke="#FFFFFF" stroke-width="0.215" points="7.3,39.4 3.4,39.4 6.7,20.8 13.4,20.8 14,31.9 18.6,20.8 
				25.6,20.8 22.3,39.4 18.4,39.4 20.9,25.5 20.7,25.5 15,39.4 10.7,39.4 10.7,39.4 10.6,38.8 10.5,37.3 10.4,35.1 10.3,32.6 
				10.1,30.1 10,27.8 9.9,26.2 9.9,25.5 9.9,25.5 9.8,25.5 9.8,25.5 9.8,25.5 9.7,25.5 9.7,25.5 9.7,25.5 9.7,25.5 9.7,25.5 
				7.3,39.4 			"/>
		</g>
	</g>
	<polygon fill="#FFFFFF" points="71.7,39.4 75.8,39.4 75.8,39.4 77.1,31.4 77.2,31.1 77.3,30.8 77.3,30.5 77.4,30.2 77.5,29.9 
		77.7,29.6 77.9,29.4 78,29.1 78.3,28.9 78.5,28.7 78.8,28.5 79.2,28.4 79.6,28.3 80,28.2 80.5,28.1 81.1,28.1 81.1,28.1 81.2,28.1 
		81.2,28.1 81.3,28.1 81.4,28.1 81.4,28.1 81.5,28.1 81.5,28.1 81.5,28 81.6,27.9 81.6,27.6 81.7,27.3 81.8,26.9 81.9,26.5 82,26.1 
		82.2,25.8 82.3,25.5 82.4,25.2 82.5,25 82.7,24.7 82.8,24.5 82.9,24.3 83,24.2 83,24.2 83,24.2 82.9,24.2 82.8,24.2 82.7,24.1 
		82.6,24.1 82.5,24.1 82.4,24.1 82.3,24.1 81.9,24.1 81.5,24.2 81.1,24.2 80.8,24.3 80.5,24.5 80.2,24.6 79.9,24.7 79.7,24.9 
		79.4,25.1 79.2,25.3 79,25.5 78.8,25.8 78.6,26 78.4,26.3 78.1,26.5 77.9,26.8 78.4,24.3 74.4,24.2 71.7,39.4 	"/>
	<g>
		<g>
			<polyline fill="none" stroke="#FFFFFF" stroke-width="0.215" points="71.7,39.4 75.8,39.4 75.8,39.4 77.1,31.4 77.1,31.4 
				77.2,31.1 77.3,30.8 77.3,30.5 77.4,30.2 77.5,29.9 77.7,29.6 77.9,29.4 78,29.1 78.3,28.9 78.5,28.7 78.8,28.5 79.2,28.4 
				79.6,28.3 80,28.2 80.5,28.1 81.1,28.1 81.1,28.1 81.1,28.1 81.2,28.1 81.2,28.1 81.3,28.1 81.4,28.1 81.4,28.1 81.5,28.1 
				81.5,28.1 81.5,28.1 81.5,28 81.6,27.9 81.6,27.6 81.7,27.3 81.8,26.9 81.9,26.5 82,26.1 82.2,25.8 82.2,25.8 82.3,25.5 
				82.4,25.2 82.5,25 82.7,24.7 82.8,24.5 82.9,24.3 83,24.2 83,24.2 83,24.2 83,24.2 82.9,24.2 82.8,24.2 82.7,24.1 82.6,24.1 
				82.5,24.1 82.4,24.1 82.3,24.1 82.3,24.1 81.9,24.1 81.5,24.2 81.1,24.2 80.8,24.3 80.5,24.5 80.2,24.6 79.9,24.7 79.7,24.9 
				79.4,25.1 79.2,25.3 79,25.5 78.8,25.8 78.6,26 78.4,26.3 78.1,26.5 77.9,26.8 78.4,24.3 74.4,24.2 71.7,39.4 71.7,39.4 			"/>
		</g>
	</g>
	<polygon fill="#FFFFFF" points="89.1,24.1 89.6,24.1 90,24.1 90.4,24.2 90.8,24.2 91.2,24.3 91.6,24.4 92,24.5 92.4,24.6 
		92.7,24.8 93,25 93.3,25.1 93.6,25.3 93.9,25.5 94.2,25.7 94.5,26 94.7,26.2 95,26.5 95.2,26.7 95.4,27 95.6,27.3 95.7,27.6 
		95.9,27.9 96,28.3 96.2,28.6 96.3,29 96.3,29.3 96.4,29.7 96.5,30.1 96.5,30.5 96.5,30.9 96.6,31.3 96.5,31.7 96.5,32.2 96.5,32.7 
		96.4,33.2 96.3,33.6 96.2,34 96.1,34.5 95.9,34.9 95.8,35.2 95.6,35.6 95.4,36 95.2,36.3 95,36.6 94.8,36.9 94.5,37.2 94.3,37.5 
		94,37.7 93.7,38 93.5,38.2 93.2,38.4 92.8,38.6 92.5,38.8 92.2,38.9 91.8,39.1 91.5,39.2 91.1,39.3 90.8,39.4 90.4,39.5 90,39.6 
		89.6,39.6 89.2,39.7 88.8,39.7 88.4,39.7 88,39.7 87.6,39.7 87.2,39.6 86.8,39.6 86.5,39.5 86.1,39.4 85.7,39.3 85.4,39.2 85,39.1 
		84.7,38.9 84.4,38.8 84.1,38.6 83.8,38.4 83.5,38.2 83.2,38 83,37.7 82.7,37.5 82.5,37.2 82.3,36.9 82.1,36.6 81.9,36.3 81.7,36 
		81.6,35.7 81.5,35.3 81.3,35 81.2,34.6 81.1,34.2 81.1,33.8 81,33.4 81,32.9 81,32.5 81,32 81,31.5 81.1,31.1 81.1,30.6 81.2,30.2 
		81.3,29.8 81.4,29.4 81.6,29 81.7,28.6 81.9,28.3 82.1,27.9 82.3,27.6 82.5,27.3 82.7,27 82.9,26.7 83.2,26.4 83.4,26.1 83.7,25.9 
		84,25.7 84.3,25.5 84.6,25.3 84.9,25.1 85.2,24.9 85.6,24.8 85.9,24.6 86.3,24.5 86.7,24.4 87.1,24.3 87.5,24.2 87.9,24.2 
		88.3,24.1 88.7,24.1 	"/>
	<g>
		<g>
			<polyline fill="none" stroke="#FFFFFF" stroke-width="0.215" points="89.1,24.1 89.1,24.1 89.6,24.1 90,24.1 90.4,24.2 
				90.8,24.2 91.2,24.3 91.6,24.4 92,24.5 92.4,24.6 92.7,24.8 93,25 93.3,25.1 93.6,25.3 93.9,25.5 94.2,25.7 94.5,26 94.7,26.2 
				95,26.5 95.2,26.7 95.4,27 95.6,27.3 95.7,27.6 95.9,27.9 96,28.3 96.2,28.6 96.3,29 96.3,29.3 96.4,29.7 96.5,30.1 96.5,30.5 
				96.5,30.9 96.6,31.3 96.5,31.7 96.5,31.7 96.5,32.2 96.5,32.7 96.4,33.2 96.3,33.6 96.2,34 96.1,34.5 95.9,34.9 95.8,35.2 
				95.6,35.6 95.4,36 95.2,36.3 95,36.6 94.8,36.9 94.5,37.2 94.3,37.5 94,37.7 93.7,38 93.5,38.2 93.2,38.4 92.8,38.6 92.5,38.8 
				92.2,38.9 91.8,39.1 91.5,39.2 91.1,39.3 90.8,39.4 90.4,39.5 90,39.6 89.6,39.6 89.2,39.7 88.8,39.7 88.4,39.7 88.4,39.7 
				88,39.7 87.6,39.7 87.2,39.6 86.8,39.6 86.5,39.5 86.1,39.4 85.7,39.3 85.4,39.2 85,39.1 84.7,38.9 84.4,38.8 84.1,38.6 
				83.8,38.4 83.5,38.2 83.2,38 83,37.7 82.7,37.5 82.5,37.2 82.3,36.9 82.1,36.6 81.9,36.3 81.7,36 81.6,35.7 81.5,35.3 81.3,35 
				81.2,34.6 81.1,34.2 81.1,33.8 81,33.4 81,32.9 81,32.5 81,32 81,32 81,31.5 81.1,31.1 81.1,30.6 81.2,30.2 81.3,29.8 81.4,29.4 
				81.6,29 81.7,28.6 81.9,28.3 82.1,27.9 82.3,27.6 82.5,27.3 82.7,27 82.9,26.7 83.2,26.4 83.4,26.1 83.7,25.9 84,25.7 84.3,25.5 
				84.6,25.3 84.9,25.1 85.2,24.9 85.6,24.8 85.9,24.6 86.3,24.5 86.7,24.4 87.1,24.3 87.5,24.2 87.9,24.2 88.3,24.1 88.7,24.1 
				89.1,24.1 			"/>
		</g>
	</g>
	<polygon fill="#FFFFFF" points="95,38.7 96.2,38.7 96.2,38.8 95.7,38.8 95.7,39.8 95.5,39.8 95.5,38.8 95,38.8 	"/>
	<g>
		<g>
			<polyline fill="none" stroke="#FFFFFF" stroke-width="0.215" points="95,38.7 96.2,38.7 96.2,38.8 95.7,38.8 95.7,39.8 
				95.5,39.8 95.5,38.8 95,38.8 95,38.7 			"/>
		</g>
	</g>
	<polygon fill="#FFFFFF" points="96.3,38.7 96.7,38.7 97.1,39.5 97.1,39.5 97.5,38.7 97.9,38.7 97.9,39.8 97.6,39.8 97.6,38.9 
		97.6,38.9 97.2,39.8 97,39.8 96.6,38.9 96.6,38.9 96.6,39.8 96.3,39.8 	"/>
	<g>
		<g>
			<polyline fill="none" stroke="#FFFFFF" stroke-width="0.215" points="96.3,38.7 96.7,38.7 97.1,39.5 97.1,39.5 97.5,38.7 
				97.9,38.7 97.9,39.8 97.6,39.8 97.6,38.9 97.6,38.9 97.2,39.8 97,39.8 96.6,38.9 96.6,38.9 96.6,39.8 96.3,39.8 96.3,38.7 			"/>
		</g>
	</g>
	<polygon fill="#E30520" points="86,31.3 85.9,31.9 85.9,32.4 85.9,32.9 85.9,33.3 86,33.7 86.1,34.1 86.2,34.4 86.3,34.7 
		86.5,34.9 86.7,35.1 86.9,35.3 87.1,35.4 87.3,35.5 87.6,35.6 87.9,35.6 88.2,35.7 88.6,35.7 88.9,35.6 89.2,35.6 89.5,35.4 
		89.8,35.3 90,35.1 90.3,34.9 90.5,34.7 90.7,34.4 90.9,34.1 91.1,33.7 91.3,33.3 91.4,32.9 91.5,32.5 91.6,31.9 91.7,31.4 91.8,31 
		91.8,30.6 91.8,30.2 91.8,29.8 91.7,29.5 91.6,29.1 91.5,28.8 91.4,28.5 91.2,28.3 91.1,28.1 90.9,27.9 90.6,27.7 90.4,27.6 
		90.1,27.5 89.8,27.4 89.5,27.4 89.1,27.5 88.7,27.5 88.4,27.7 88,27.8 87.7,28 87.5,28.2 87.2,28.5 87,28.8 86.8,29 86.6,29.4 
		86.4,29.7 86.3,30 86.2,30.3 86.1,30.7 86,31 	"/>
</g>
</svg>
