<?xml version="1.0" encoding="utf-8"?>
<!-- Generator: Adobe Illustrator 19.0.0, SVG Export Plug-In . SVG Version: 6.00 Build 0)  -->
<!DOCTYPE svg PUBLIC "-//W3C//DTD SVG 1.1//EN" "http://www.w3.org/Graphics/SVG/1.1/DTD/svg11.dtd">
<svg version="1.1" id="Layer_1" xmlns="http://www.w3.org/2000/svg" xmlns:xlink="http://www.w3.org/1999/xlink" x="0px" y="0px"
	 viewBox="0 0 100 60" enable-background="new 0 0 100 60" xml:space="preserve">
<g>
	<polygon fill="#FAB41E" points="70,59.9 71.6,59.8 73.1,59.7 74.6,59.5 76.1,59.2 77.5,58.9 78.9,58.5 80.3,58 81.7,57.5 83,56.9 
		84.3,56.2 85.6,55.5 86.8,54.7 88,53.9 89.1,53 90.2,52.1 91.2,51.1 92.2,50 93.2,48.9 94,47.8 94.9,46.6 95.7,45.4 96.4,44.2 
		97,42.9 97.6,41.5 98.2,40.2 98.7,38.8 99.1,37.4 99.4,35.9 99.7,34.4 99.8,32.9 100,31.4 100,29.9 100,28.3 99.8,26.8 99.7,25.3 
		99.4,23.9 99.1,22.4 98.7,21 98.2,19.6 97.6,18.3 97,16.9 96.4,15.6 95.7,14.4 94.9,13.2 94,12 93.2,10.9 92.2,9.8 91.2,8.8 
		90.2,7.8 89.1,6.8 88,5.9 86.8,5.1 85.6,4.3 84.3,3.6 83,3 81.7,2.4 80.3,1.8 78.9,1.3 77.5,0.9 76.1,0.6 74.6,0.3 73.1,0.2 
		71.6,0 70,0 68.5,0 67,0.2 65.5,0.3 64,0.6 62.5,0.9 61.1,1.3 59.7,1.8 58.4,2.4 57.1,3 55.8,3.6 54.5,4.3 53.3,5.1 52.1,5.9 
		51,6.8 49.9,7.8 48.9,8.8 47.9,9.8 47,10.9 46.1,12 45.2,13.2 44.5,14.4 43.8,15.6 43.1,16.9 42.5,18.3 42,19.6 41.5,21 41.1,22.4 
		40.8,23.9 40.5,25.3 40.3,26.8 40.2,28.3 40.1,29.9 40.2,31.4 40.3,32.9 40.5,34.4 40.8,35.9 41.1,37.4 41.5,38.8 42,40.2 
		42.5,41.5 43.1,42.9 43.8,44.2 44.5,45.4 45.2,46.6 46.1,47.8 47,48.9 47.9,50 48.9,51.1 49.9,52.1 51,53 52.1,53.9 53.3,54.7 
		54.5,55.5 55.8,56.2 57.1,56.9 58.4,57.5 59.7,58 61.1,58.5 62.5,58.9 64,59.2 65.5,59.5 67,59.7 68.5,59.8 	"/>
	<polygon fill="#E40520" points="30,59.9 31.5,59.8 33,59.7 34.5,59.5 36,59.2 37.5,58.9 38.9,58.5 40.3,58 41.6,57.5 42.9,56.9 
		44.2,56.2 45.5,55.5 46.7,54.7 47.9,53.9 49,53 50.1,52.1 51.1,51.1 52.1,50 53,48.9 53.9,47.8 54.8,46.6 55.5,45.4 56.2,44.2 
		56.9,42.9 57.5,41.5 58,40.2 58.5,38.8 58.9,37.4 59.2,35.9 59.5,34.4 59.7,32.9 59.8,31.4 59.9,29.9 59.8,28.3 59.7,26.8 
		59.5,25.3 59.2,23.9 58.9,22.4 58.5,21 58,19.6 57.5,18.3 56.9,16.9 56.2,15.6 55.5,14.4 54.8,13.2 53.9,12 53,10.9 52.1,9.8 
		51.1,8.8 50.1,7.8 49,6.8 47.9,5.9 46.7,5.1 45.5,4.3 44.2,3.6 42.9,3 41.6,2.4 40.3,1.8 38.9,1.3 37.5,0.9 36,0.6 34.5,0.3 
		33,0.2 31.5,0 30,0 28.4,0 26.9,0.2 25.4,0.3 23.9,0.6 22.5,0.9 21.1,1.3 19.7,1.8 18.3,2.4 17,3 15.7,3.6 14.4,4.3 13.2,5.1 
		12,5.9 10.9,6.8 9.8,7.8 8.8,8.8 7.8,9.8 6.8,10.9 6,12 5.1,13.2 4.3,14.4 3.6,15.6 3,16.9 2.4,18.3 1.8,19.6 1.3,21 0.9,22.4 
		0.6,23.9 0.3,25.3 0.2,26.8 0,28.3 0,29.9 0,31.4 0.2,32.9 0.3,34.4 0.6,35.9 0.9,37.4 1.3,38.8 1.8,40.2 2.4,41.5 3,42.9 
		3.6,44.2 4.3,45.4 5.1,46.6 6,47.8 6.8,48.9 7.8,50 8.8,51.1 9.8,52.1 10.9,53 12,53.9 13.2,54.7 14.4,55.5 15.7,56.2 17,56.9 
		18.3,57.5 19.7,58 21.1,58.5 22.5,58.9 23.9,59.2 25.4,59.5 26.9,59.7 28.4,59.8 	"/>
	<polygon fill="#FAB41E" points="46.5,11.5 62.4,11.5 62.4,9.9 47.9,9.9 	"/>
	<polygon fill="#FAB41E" points="44.1,15.1 62.4,15.1 62.4,13.5 45.1,13.5 	"/>
	<polygon fill="#FAB41E" points="42.3,18.7 62.4,18.7 62.4,17.1 43,17.1 	"/>
	<polygon fill="#FAB41E" points="41.1,22.3 62.4,22.3 62.4,20.7 41.6,20.7 	"/>
	<polygon fill="#FAB41E" points="41.8,39.8 62.4,39.8 62.4,38.1 41.3,38.1 	"/>
	<polygon fill="#FAB41E" points="43.3,43.4 62.4,43.4 62.4,41.8 42.6,41.8 	"/>
	<polygon fill="#FAB41E" points="45.5,47 62.4,47 62.4,45.4 44.5,45.4 	"/>
	<polygon fill="#FAB41E" points="48.4,50.6 62.4,50.6 62.4,49 47,49 	"/>
	<polygon fill="#FAB41E" points="40.4,25.9 62.4,25.9 62.4,24.3 40.7,24.3 	"/>
	<polygon fill="#FAB41E" points="53.8,36.2 62.2,36.2 62.2,34.5 54.1,34.5 	"/>
	<polygon fill="#FAB41E" points="54.5,32.6 62.2,32.6 62.2,30.9 54.8,30.9 	"/>
	<polygon fill="#FAB41E" points="39.8,30.9 42,30.9 42,32.6 39.9,32.6 	"/>
	<polygon fill="#FFFFFF" points="35.8,29 35.6,29 35.5,28.9 35.4,28.9 35.2,28.9 35.1,28.9 35,28.9 34.8,28.8 34.7,28.8 34.6,28.8 
		34.4,28.8 34.2,28.8 34,28.8 33.8,28.8 33.6,28.8 33.3,28.8 33,28.8 32.8,28.8 32.6,28.9 32.5,28.9 32.3,29 32.2,29.1 32,29.1 
		31.9,29.2 31.8,29.3 31.8,29.4 31.7,29.6 31.7,29.7 31.7,29.8 31.7,29.9 31.8,30.1 31.9,30.2 32,30.3 32.2,30.5 32.4,30.7 
		32.7,30.8 33,30.9 33.3,31 33.7,31.1 34,31.2 34.3,31.4 34.6,31.5 34.9,31.8 35.2,32 35.4,32.3 35.5,32.7 35.6,33.2 35.7,33.7 
		35.6,34.3 35.6,34.8 35.4,35.2 35.3,35.6 35.1,35.9 34.8,36.2 34.6,36.5 34.3,36.7 34,36.9 33.7,37.1 33.3,37.2 33,37.3 32.6,37.4 
		32.3,37.4 32,37.5 31.6,37.5 31.3,37.5 30.9,37.5 30.5,37.5 30.1,37.5 29.8,37.5 29.5,37.5 29.2,37.4 29,37.4 28.7,37.4 28.5,37.4 
		28.3,37.3 28.1,37.3 28,37.3 27.8,37.2 27.6,37.1 27.5,37.1 27.3,37 27.8,34.8 27.8,34.8 28,34.8 28.1,34.9 28.3,34.9 28.4,35 
		28.6,35 28.9,35.1 29.1,35.1 29.4,35.1 29.6,35.2 29.9,35.2 30.2,35.2 30.5,35.3 30.8,35.3 31.1,35.3 31.4,35.3 31.6,35.2 
		31.9,35.1 32.1,35 32.2,34.9 32.3,34.7 32.4,34.6 32.4,34.4 32.5,34.2 32.5,33.9 32.4,33.7 32.2,33.5 32,33.3 31.7,33.2 31.3,33 
		30.9,32.9 30.5,32.7 30.1,32.5 29.7,32.3 29.4,32.1 29.1,31.7 28.8,31.4 28.6,30.9 28.5,30.4 28.6,29.7 28.6,29.3 28.7,29 
		28.8,28.6 28.9,28.3 29.1,28 29.2,27.7 29.5,27.5 29.7,27.2 30,27.1 30.3,26.9 30.7,26.7 31.1,26.6 31.5,26.5 32,26.5 32.6,26.4 
		33.2,26.4 33.6,26.4 33.9,26.4 34.2,26.4 34.5,26.4 34.7,26.5 35,26.5 35.2,26.5 35.4,26.5 35.5,26.5 35.7,26.6 35.8,26.6 
		35.9,26.6 36,26.6 36.1,26.7 36.2,26.7 36.3,26.7 	"/>
	<g>
		<g>
			<polyline fill="none" stroke="#FFFFFF" stroke-width="0.215" points="35.8,29 35.8,29 35.6,29 35.5,28.9 35.4,28.9 35.2,28.9 
				35.1,28.9 35,28.9 34.8,28.8 34.7,28.8 34.6,28.8 34.4,28.8 34.2,28.8 34,28.8 33.8,28.8 33.6,28.8 33.3,28.8 33,28.8 33,28.8 
				32.8,28.8 32.6,28.9 32.5,28.9 32.3,29 32.2,29.1 32,29.1 31.9,29.2 31.8,29.3 31.8,29.4 31.7,29.6 31.7,29.7 31.7,29.8 
				31.7,29.9 31.8,30.1 31.9,30.2 32,30.3 32,30.3 32.2,30.5 32.4,30.7 32.7,30.8 33,30.9 33.3,31 33.7,31.1 34,31.2 34.3,31.4 
				34.6,31.5 34.9,31.8 35.2,32 35.4,32.3 35.5,32.7 35.6,33.2 35.7,33.7 35.6,34.3 35.6,34.3 35.6,34.8 35.4,35.2 35.3,35.6 
				35.1,35.9 34.8,36.2 34.6,36.5 34.3,36.7 34,36.9 33.7,37.1 33.3,37.2 33,37.3 32.6,37.4 32.3,37.4 32,37.5 31.6,37.5 31.3,37.5 
				31.3,37.5 30.9,37.5 30.5,37.5 30.1,37.5 29.8,37.5 29.5,37.5 29.2,37.4 29,37.4 28.7,37.4 28.5,37.4 28.3,37.3 28.1,37.3 
				28,37.3 27.8,37.2 27.6,37.1 27.5,37.1 27.3,37 27.8,34.8 27.8,34.8 27.8,34.8 28,34.8 28.1,34.9 28.3,34.9 28.4,35 28.6,35 
				28.9,35.1 29.1,35.1 29.4,35.1 29.6,35.2 29.9,35.2 30.2,35.2 30.5,35.3 30.8,35.3 31.1,35.3 31.4,35.3 31.4,35.3 31.6,35.2 
				31.9,35.1 32.1,35 32.2,34.9 32.3,34.7 32.4,34.6 32.4,34.4 32.5,34.2 32.5,34.2 32.5,33.9 32.4,33.7 32.2,33.5 32,33.3 
				31.7,33.2 31.3,33 30.9,32.9 30.5,32.7 30.1,32.5 29.7,32.3 29.4,32.1 29.1,31.7 28.8,31.4 28.6,30.9 28.5,30.4 28.6,29.7 
				28.6,29.7 28.6,29.3 28.7,29 28.8,28.6 28.9,28.3 29.1,28 29.2,27.7 29.5,27.5 29.7,27.2 30,27.1 30.3,26.9 30.7,26.7 31.1,26.6 
				31.5,26.5 32,26.5 32.6,26.4 33.2,26.4 33.2,26.4 33.6,26.4 33.9,26.4 34.2,26.4 34.5,26.4 34.7,26.5 35,26.5 35.2,26.5 
				35.4,26.5 35.5,26.5 35.7,26.6 35.8,26.6 35.9,26.6 36,26.6 36.1,26.7 36.2,26.7 36.3,26.7 35.8,29 			"/>
		</g>
	</g>
	<polygon fill="#FFFFFF" points="38.2,24.2 41,24.2 40.6,26.6 42.2,26.6 41.9,28.9 40.1,28.9 39.1,34.5 39.1,34.7 39.2,34.9 
		39.3,35 39.4,35.1 39.6,35.2 39.8,35.2 40,35.3 40.2,35.3 40.5,35.3 40.7,35.3 40.9,35.2 41,35.2 41.1,35.2 41.2,35.1 41.3,35.1 
		41.3,35.1 41,37 40.9,37 40.8,37.1 40.8,37.1 40.7,37.1 40.6,37.2 40.5,37.2 40.4,37.2 40.3,37.3 40.2,37.3 40.1,37.3 40,37.3 
		39.9,37.4 39.8,37.4 39.6,37.4 39.5,37.4 39.3,37.4 38.5,37.4 38.1,37.4 37.8,37.4 37.4,37.3 37.2,37.2 36.9,37.1 36.7,37 
		36.6,36.9 36.4,36.8 36.3,36.7 36.3,36.5 36.2,36.3 36.2,36.1 36.2,35.9 36.2,35.7 36.2,35.5 36.2,35.2 	"/>
	<g>
		<g>
			<polyline fill="none" stroke="#FFFFFF" stroke-width="0.215" points="38.2,24.2 41,24.2 40.6,26.6 42.2,26.6 41.9,28.9 
				40.1,28.9 39.1,34.5 39.1,34.5 39.1,34.7 39.2,34.9 39.3,35 39.4,35.1 39.6,35.2 39.8,35.2 40,35.3 40.2,35.3 40.2,35.3 
				40.5,35.3 40.7,35.3 40.9,35.2 41,35.2 41.1,35.2 41.2,35.1 41.3,35.1 41.3,35.1 41,37 41,37 40.9,37 40.8,37.1 40.8,37.1 
				40.7,37.1 40.6,37.2 40.5,37.2 40.4,37.2 40.3,37.3 40.2,37.3 40.1,37.3 40,37.3 39.9,37.4 39.8,37.4 39.6,37.4 39.5,37.4 
				39.3,37.4 38.5,37.4 38.5,37.4 38.1,37.4 37.8,37.4 37.4,37.3 37.2,37.2 36.9,37.1 36.7,37 36.6,36.9 36.4,36.8 36.3,36.7 
				36.3,36.5 36.2,36.3 36.2,36.1 36.2,35.9 36.2,35.7 36.2,35.5 36.2,35.2 38.2,24.2 			"/>
		</g>
	</g>
	<polygon fill="#FFFFFF" points="44.5,32.7 44.4,32.9 44.4,33.1 44.4,33.3 44.5,33.5 44.6,33.6 44.6,33.8 44.8,34 44.9,34.2 
		45,34.4 45.2,34.5 45.3,34.7 45.5,34.8 45.7,34.9 45.9,35 46.1,35.1 46.3,35.1 46.6,35.1 46.8,35.2 47.1,35.2 47.3,35.2 47.6,35.2 
		47.9,35.2 48.1,35.2 48.4,35.2 48.7,35.2 49,35.1 49.2,35 49.5,35 49.8,34.8 50.1,34.7 50.4,34.6 50.7,34.4 50.3,36.9 50.1,37 
		49.9,37 49.8,37.1 49.6,37.2 49.5,37.2 49.3,37.3 49.1,37.3 49,37.3 48.8,37.4 48.6,37.4 48.4,37.4 48.1,37.4 47.9,37.4 47.6,37.4 
		47.3,37.4 47,37.4 46.5,37.4 46,37.4 45.5,37.3 45,37.2 44.5,37 44,36.8 43.5,36.6 43.1,36.3 42.7,36 42.4,35.5 42.1,35.1 
		41.8,34.5 41.7,33.9 41.6,33.3 41.5,32.5 41.6,31.7 41.6,31.4 41.7,31 41.8,30.6 41.9,30.2 42,29.7 42.2,29.3 42.4,28.9 42.7,28.4 
		43,28 43.4,27.7 43.9,27.3 44.4,27 45,26.8 45.6,26.6 46.3,26.5 47.2,26.4 47.6,26.4 48,26.5 48.4,26.5 48.8,26.6 49.2,26.8 
		49.6,27 50,27.2 50.3,27.5 50.6,27.8 50.8,28.2 51,28.7 51.2,29.2 51.3,29.9 51.3,30.5 51.2,31.3 51.1,32.2 51,32.8 43.7,32.8 
		44.1,30.8 48.5,30.8 48.6,30.5 48.5,30.3 48.5,30.1 48.5,29.9 48.4,29.7 48.3,29.5 48.2,29.3 48.1,29.2 48,29.1 47.9,29 47.7,28.9 
		47.6,28.8 47.4,28.8 47.3,28.7 47.1,28.7 46.9,28.7 46.7,28.7 46.5,28.7 46.4,28.7 46.2,28.8 46,28.9 45.9,29 45.7,29.1 45.6,29.2 
		45.5,29.3 45.3,29.5 45.2,29.7 45.1,29.8 45,30 45,30.2 44.9,30.4 44.9,30.6 	"/>
	<g>
		<g>
			<polyline fill="none" stroke="#FFFFFF" stroke-width="0.215" points="44.5,32.7 44.5,32.7 44.4,32.9 44.4,33.1 44.4,33.3 
				44.5,33.5 44.6,33.6 44.6,33.8 44.8,34 44.9,34.2 45,34.4 45.2,34.5 45.3,34.7 45.5,34.8 45.7,34.9 45.9,35 46.1,35.1 46.3,35.1 
				46.3,35.1 46.6,35.1 46.8,35.2 47.1,35.2 47.3,35.2 47.6,35.2 47.9,35.2 48.1,35.2 48.4,35.2 48.7,35.2 49,35.1 49.2,35 49.5,35 
				49.8,34.8 50.1,34.7 50.4,34.6 50.7,34.4 50.3,36.9 50.3,36.9 50.1,37 49.9,37 49.8,37.1 49.6,37.2 49.5,37.2 49.3,37.3 
				49.1,37.3 49,37.3 48.8,37.4 48.6,37.4 48.4,37.4 48.1,37.4 47.9,37.4 47.6,37.4 47.3,37.4 47,37.4 47,37.4 46.5,37.4 46,37.4 
				45.5,37.3 45,37.2 44.5,37 44,36.8 43.5,36.6 43.1,36.3 42.7,36 42.4,35.5 42.1,35.1 41.8,34.5 41.7,33.9 41.6,33.3 41.5,32.5 
				41.6,31.7 41.6,31.7 41.6,31.4 41.7,31 41.8,30.6 41.9,30.2 42,29.7 42.2,29.3 42.4,28.9 42.7,28.4 43,28 43.4,27.7 43.9,27.3 
				44.4,27 45,26.8 45.6,26.6 46.3,26.5 47.2,26.4 47.2,26.4 47.6,26.4 48,26.5 48.4,26.5 48.8,26.6 49.2,26.8 49.6,27 50,27.2 
				50.3,27.5 50.6,27.8 50.8,28.2 51,28.7 51.2,29.2 51.3,29.9 51.3,30.5 51.2,31.3 51.1,32.2 51,32.8 43.7,32.8 44.1,30.8 
				48.5,30.8 48.5,30.8 48.6,30.5 48.5,30.3 48.5,30.1 48.5,29.9 48.4,29.7 48.3,29.5 48.2,29.3 48.1,29.2 48,29.1 47.9,29 
				47.7,28.9 47.6,28.8 47.4,28.8 47.3,28.7 47.1,28.7 46.9,28.7 46.9,28.7 46.7,28.7 46.5,28.7 46.4,28.7 46.2,28.8 46,28.9 
				45.9,29 45.7,29.1 45.6,29.2 45.5,29.3 45.3,29.5 45.2,29.7 45.1,29.8 45,30 45,30.2 44.9,30.4 44.9,30.6 44.5,32.7 			"/>
		</g>
	</g>
	<polygon fill="#FFFFFF" points="68.5,27.2 68.4,27.2 68.3,27.1 68.1,27 68,27 67.8,26.9 67.7,26.8 67.5,26.8 67.3,26.7 67.1,26.7 
		66.9,26.6 66.7,26.6 66.5,26.6 66.3,26.5 66,26.5 65.8,26.5 65.5,26.5 65.3,26.5 65,26.5 64.8,26.6 64.5,26.6 64.2,26.7 63.9,26.8 
		63.6,27 63.3,27.1 63.1,27.4 62.8,27.6 62.6,27.9 62.3,28.3 62.1,28.8 61.9,29.3 61.7,29.8 61.5,30.5 61.5,30.8 61.4,31.2 
		61.4,31.5 61.4,31.9 61.4,32.2 61.5,32.6 61.6,32.9 61.7,33.2 61.9,33.4 62.1,33.7 62.3,33.9 62.5,34.1 62.8,34.3 63.1,34.5 
		63.4,34.6 63.8,34.7 64,34.7 64.1,34.8 64.3,34.8 64.5,34.8 64.7,34.8 64.9,34.8 65.2,34.8 65.4,34.8 65.7,34.8 66,34.7 66.2,34.6 
		66.5,34.6 66.7,34.5 67,34.3 67.2,34.2 67.4,34 66.9,36.7 66.9,36.7 66.8,36.8 66.7,36.9 66.6,36.9 66.5,37 66.4,37.1 66.2,37.1 
		66,37.2 65.8,37.3 65.5,37.3 65.2,37.4 64.9,37.4 64.5,37.4 64,37.4 63.5,37.4 63,37.4 62.5,37.3 62,37.2 61.6,37.1 61.1,36.9 
		60.7,36.6 60.2,36.3 59.8,36 59.4,35.6 59.1,35.1 58.8,34.6 58.6,34.1 58.4,33.4 58.3,32.8 58.2,32.1 58.3,31.3 58.4,30.4 58.5,30 
		58.6,29.6 58.7,29.2 58.8,28.8 58.9,28.5 59,28.1 59.1,27.8 59.3,27.5 59.4,27.2 59.6,26.9 59.7,26.6 59.9,26.3 60.1,26.1 
		60.3,25.8 60.5,25.6 60.7,25.4 61,25.2 61.2,25 61.4,24.8 61.7,24.7 62,24.5 62.2,24.4 62.5,24.3 62.8,24.2 63.1,24.1 63.4,24 
		63.7,23.9 64.1,23.9 64.4,23.8 64.8,23.8 65.2,23.7 65.5,23.7 65.9,23.7 66.2,23.8 66.5,23.8 66.8,23.8 67.1,23.9 67.3,23.9 
		67.6,24 67.8,24 68.1,24.1 68.3,24.2 68.5,24.2 68.6,24.3 68.8,24.3 68.9,24.4 69,24.4 69,24.4 	"/>
	<g>
		<g>
			<polyline fill="none" stroke="#FFFFFF" stroke-width="0.215" points="68.5,27.2 68.5,27.2 68.4,27.2 68.3,27.1 68.1,27 68,27 
				67.8,26.9 67.7,26.8 67.5,26.8 67.3,26.7 67.1,26.7 66.9,26.6 66.7,26.6 66.5,26.6 66.3,26.5 66,26.5 65.8,26.5 65.5,26.5 
				65.5,26.5 65.3,26.5 65,26.5 64.8,26.6 64.5,26.6 64.2,26.7 63.9,26.8 63.6,27 63.3,27.1 63.1,27.4 62.8,27.6 62.6,27.9 
				62.3,28.3 62.1,28.8 61.9,29.3 61.7,29.8 61.5,30.5 61.5,30.5 61.5,30.8 61.4,31.2 61.4,31.5 61.4,31.9 61.4,32.2 61.5,32.6 
				61.6,32.9 61.7,33.2 61.9,33.4 62.1,33.7 62.3,33.9 62.5,34.1 62.8,34.3 63.1,34.5 63.4,34.6 63.8,34.7 63.8,34.7 64,34.7 
				64.1,34.8 64.3,34.8 64.5,34.8 64.7,34.8 64.9,34.8 65.2,34.8 65.4,34.8 65.7,34.8 66,34.7 66.2,34.6 66.5,34.6 66.7,34.5 
				67,34.3 67.2,34.2 67.4,34 66.9,36.7 66.9,36.7 66.9,36.7 66.8,36.8 66.7,36.9 66.6,36.9 66.5,37 66.4,37.1 66.2,37.1 66,37.2 
				65.8,37.3 65.5,37.3 65.2,37.4 64.9,37.4 64.5,37.4 64,37.4 63.5,37.4 63,37.4 63,37.4 62.5,37.3 62,37.2 61.6,37.1 61.1,36.9 
				60.7,36.6 60.2,36.3 59.8,36 59.4,35.6 59.1,35.1 58.8,34.6 58.6,34.1 58.4,33.4 58.3,32.8 58.2,32.1 58.3,31.3 58.4,30.4 
				58.4,30.4 58.5,30 58.6,29.6 58.7,29.2 58.8,28.8 58.9,28.5 59,28.1 59.1,27.8 59.3,27.5 59.4,27.2 59.6,26.9 59.7,26.6 
				59.9,26.3 60.1,26.1 60.3,25.8 60.5,25.6 60.7,25.4 61,25.2 61.2,25 61.4,24.8 61.7,24.7 62,24.5 62.2,24.4 62.5,24.3 62.8,24.2 
				63.1,24.1 63.4,24 63.7,23.9 64.1,23.9 64.4,23.8 64.8,23.8 65.2,23.7 65.5,23.7 65.5,23.7 65.9,23.7 66.2,23.8 66.5,23.8 
				66.8,23.8 67.1,23.9 67.3,23.9 67.6,24 67.8,24 68.1,24.1 68.3,24.2 68.5,24.2 68.6,24.3 68.8,24.3 68.9,24.4 69,24.4 69,24.4 
				68.5,27.2 			"/>
		</g>
	</g>
	<polygon fill="#FFFFFF" points="93.4,37.4 90.6,37.4 90.8,36.3 90.8,36.2 90.6,36.4 90.5,36.6 90.3,36.8 90.1,36.9 89.9,37 
		89.8,37.1 89.6,37.2 89.4,37.3 89.2,37.4 89,37.5 88.8,37.5 88.6,37.5 88.4,37.6 88.2,37.6 88,37.6 87.8,37.6 87.3,37.6 86.8,37.4 
		86.4,37.3 85.9,37 85.6,36.7 85.3,36.4 85,36 84.7,35.6 84.5,35.2 84.4,34.7 84.3,34.2 84.2,33.7 84.2,33.2 84.2,32.6 84.2,32.1 
		84.3,31.6 84.5,31 84.6,30.4 84.8,29.9 85.1,29.4 85.4,29 85.7,28.6 86,28.2 86.3,27.9 86.7,27.6 87,27.3 87.4,27.1 87.8,26.9 
		88.2,26.8 88.6,26.7 89,26.7 89.4,26.6 89.7,26.6 90,26.7 90.3,26.7 90.5,26.8 90.7,26.9 90.9,27 91.1,27.1 91.3,27.2 91.5,27.3 
		91.6,27.4 91.8,27.6 91.9,27.7 92,27.8 92.1,28 92.2,28.1 92.2,28.2 92.2,28.2 92.9,24.2 95.7,24.2 	"/>
	<g>
		<g>
			<polyline fill="none" stroke="#FFFFFF" stroke-width="0.215" points="93.4,37.4 90.6,37.4 90.8,36.3 90.8,36.2 90.8,36.2 
				90.6,36.4 90.5,36.6 90.3,36.8 90.1,36.9 89.9,37 89.8,37.1 89.6,37.2 89.4,37.3 89.2,37.4 89,37.5 88.8,37.5 88.6,37.5 
				88.4,37.6 88.2,37.6 88,37.6 87.8,37.6 87.8,37.6 87.3,37.6 86.8,37.4 86.4,37.3 85.9,37 85.6,36.7 85.3,36.4 85,36 84.7,35.6 
				84.5,35.2 84.4,34.7 84.3,34.2 84.2,33.7 84.2,33.2 84.2,32.6 84.2,32.1 84.3,31.6 84.3,31.6 84.5,31 84.6,30.4 84.8,29.9 
				85.1,29.4 85.4,29 85.7,28.6 86,28.2 86.3,27.9 86.7,27.6 87,27.3 87.4,27.1 87.8,26.9 88.2,26.8 88.6,26.7 89,26.7 89.4,26.6 
				89.4,26.6 89.7,26.6 90,26.7 90.3,26.7 90.5,26.8 90.7,26.9 90.9,27 91.1,27.1 91.3,27.2 91.5,27.3 91.6,27.4 91.8,27.6 
				91.9,27.7 92,27.8 92.1,28 92.2,28.1 92.2,28.2 92.2,28.2 92.9,24.2 95.7,24.2 93.4,37.4 			"/>
		</g>
	</g>
	<polygon fill="#FAB41E" points="88.8,35 89.1,35 89.4,34.9 89.6,34.8 89.8,34.7 90.1,34.6 90.3,34.5 90.5,34.3 90.6,34.1 
		90.8,33.9 90.9,33.7 91,33.5 91.2,33.2 91.3,33 91.3,32.7 91.4,32.4 91.5,32.2 91.5,31.9 91.5,31.6 91.5,31.3 91.5,31 91.5,30.8 
		91.5,30.5 91.4,30.3 91.3,30 91.2,29.8 91.1,29.6 91,29.5 90.8,29.3 90.6,29.2 90.5,29.1 90.3,29.1 90,29.1 89.8,29.1 89.5,29.1 
		89.3,29.2 89.1,29.3 88.9,29.4 88.7,29.6 88.5,29.8 88.3,30 88.2,30.2 88,30.4 87.9,30.7 87.8,30.9 87.7,31.2 87.6,31.5 87.5,31.8 
		87.5,32.1 87.4,32.5 87.4,33 87.5,33.5 87.6,33.9 87.8,34.4 88.1,34.7 88.4,34.9 	"/>
	<polygon fill="#FFFFFF" points="26.8,35.2 26.4,37.4 23.9,37.4 24,37 24,36.7 24,36.4 24.1,36.2 23.9,36.4 23.8,36.5 23.6,36.7 
		23.4,36.8 23.1,37 22.9,37.1 22.6,37.2 22.3,37.3 22.1,37.4 21.8,37.5 21.5,37.5 21.2,37.6 20.9,37.6 20.6,37.6 20.3,37.6 20,37.5 
		19.7,37.5 19.4,37.4 19.1,37.2 18.8,37.1 18.6,36.9 18.4,36.7 18.2,36.5 18.1,36.3 18,36.1 17.9,35.9 17.8,35.7 17.7,35.5 
		17.7,35.2 17.7,35 17.6,34.8 17.6,34.5 17.7,34.2 17.7,33.8 17.8,33.4 18,33.1 18.1,32.8 18.3,32.5 18.5,32.2 18.8,31.9 19,31.7 
		19.3,31.5 19.6,31.3 19.9,31.1 20.2,31 20.5,30.9 20.9,30.8 21.2,30.7 21.3,30.7 21.3,30.7 21.4,30.7 21.5,30.7 21.6,30.7 
		21.8,30.7 21.9,30.6 22.1,30.6 22.2,30.6 22.4,30.6 22.6,30.6 22.8,30.6 22.9,30.5 23.1,30.5 23.2,30.5 23.3,30.5 23.6,30.5 
		23.8,30.5 24,30.5 24.2,30.5 24.4,30.6 24.6,30.6 24.7,30.6 24.7,30.6 24.7,30.5 24.8,30.3 24.8,30.1 24.9,29.9 24.8,29.7 
		24.7,29.5 24.6,29.3 24.4,29.2 24.2,29 24,28.9 23.8,28.9 23.5,28.9 23.2,28.9 22.9,28.8 22.6,28.8 22.3,28.9 22,28.9 21.7,28.9 
		21.3,28.9 21,29 20.7,29 20.4,29.1 20.2,29.1 19.9,29.2 19.7,29.2 19.5,29.3 19.4,29.4 19.3,29.4 20,27 20.2,26.9 20.4,26.8 
		20.7,26.7 20.9,26.7 21.1,26.6 21.4,26.6 21.7,26.6 21.9,26.5 22.2,26.5 22.5,26.5 22.8,26.5 23.1,26.5 23.5,26.5 23.8,26.5 
		24.1,26.5 24.5,26.5 24.8,26.5 25.1,26.6 25.4,26.7 25.7,26.8 26,26.9 26.3,27 26.6,27.2 26.9,27.4 27.2,27.6 27.4,27.8 27.6,28.1 
		27.8,28.4 27.9,28.7 27.9,29.1 27.9,29.5 27.9,29.9 	"/>
	<g>
		<g>
			<polyline fill="none" stroke="#FFFFFF" stroke-width="0.215" points="26.8,35.2 26.4,37.4 23.9,37.4 23.9,37.4 24,37 24,36.7 
				24,36.4 24.1,36.2 24.1,36.2 23.9,36.4 23.8,36.5 23.6,36.7 23.4,36.8 23.1,37 22.9,37.1 22.6,37.2 22.3,37.3 22.1,37.4 
				21.8,37.5 21.5,37.5 21.2,37.6 20.9,37.6 20.6,37.6 20.3,37.6 20,37.5 20,37.5 19.7,37.5 19.4,37.4 19.1,37.2 18.8,37.1 
				18.6,36.9 18.4,36.7 18.2,36.5 18.1,36.3 18,36.1 17.9,35.9 17.8,35.7 17.7,35.5 17.7,35.2 17.7,35 17.6,34.8 17.6,34.5 
				17.6,34.5 17.7,34.2 17.7,33.8 17.8,33.4 18,33.1 18.1,32.8 18.3,32.5 18.5,32.2 18.8,31.9 19,31.7 19.3,31.5 19.6,31.3 
				19.9,31.1 20.2,31 20.5,30.9 20.9,30.8 21.2,30.7 21.2,30.7 21.3,30.7 21.3,30.7 21.4,30.7 21.5,30.7 21.6,30.7 21.8,30.7 
				21.9,30.6 22.1,30.6 22.2,30.6 22.4,30.6 22.6,30.6 22.8,30.6 22.9,30.5 23.1,30.5 23.2,30.5 23.3,30.5 23.3,30.5 23.6,30.5 
				23.8,30.5 24,30.5 24.2,30.5 24.4,30.6 24.6,30.6 24.7,30.6 24.7,30.6 24.7,30.6 24.7,30.5 24.8,30.3 24.8,30.1 24.9,29.9 
				24.9,29.9 24.8,29.7 24.7,29.5 24.6,29.3 24.4,29.2 24.2,29 24,28.9 23.8,28.9 23.5,28.9 23.5,28.9 23.2,28.9 22.9,28.8 
				22.6,28.8 22.3,28.9 22,28.9 21.7,28.9 21.3,28.9 21,29 20.7,29 20.4,29.1 20.2,29.1 19.9,29.2 19.7,29.2 19.5,29.3 19.4,29.4 
				19.3,29.4 20,27 20,27 20.2,26.9 20.4,26.8 20.7,26.7 20.9,26.7 21.1,26.6 21.4,26.6 21.7,26.6 21.9,26.5 22.2,26.5 22.5,26.5 
				22.8,26.5 23.1,26.5 23.5,26.5 23.8,26.5 24.1,26.5 24.5,26.5 24.5,26.5 24.8,26.5 25.1,26.6 25.4,26.7 25.7,26.8 26,26.9 
				26.3,27 26.6,27.2 26.9,27.4 27.2,27.6 27.4,27.8 27.6,28.1 27.8,28.4 27.9,28.7 27.9,29.1 27.9,29.5 27.9,29.9 26.8,35.2 			"/>
		</g>
	</g>
	<polygon fill="#E40520" points="24.4,32.6 24.4,32.5 24.3,32.5 24.3,32.4 24.2,32.4 24.1,32.4 23.9,32.4 23.8,32.4 23.6,32.4 
		23.5,32.4 23.3,32.4 23.1,32.4 23,32.5 22.8,32.5 22.7,32.5 22.6,32.5 22.5,32.6 22.4,32.6 22.3,32.6 22.2,32.7 22.1,32.7 22,32.8 
		21.8,32.8 21.7,32.9 21.6,33 21.4,33.1 21.3,33.2 21.2,33.3 21,33.4 20.9,33.6 20.9,33.7 20.8,33.9 20.8,34 20.8,34.4 20.8,34.6 
		20.9,34.8 21.1,35 21.2,35.1 21.4,35.2 21.5,35.2 21.7,35.2 22,35.2 22.3,35.2 22.5,35.1 22.8,35.1 23,35 23.2,34.9 23.3,34.8 
		23.5,34.7 23.6,34.6 23.7,34.5 23.8,34.4 23.9,34.2 24,34.1 24.1,34 24.1,33.9 24.1,33.8 24.2,33.5 24.3,33.2 24.3,32.8 	"/>
	<polygon fill="#FFFFFF" points="5.6,37.4 2.8,37.4 5.1,24.2 9.9,24.2 10.4,32.1 13.7,24.2 18.7,24.2 16.3,37.4 13.6,37.4 
		15.3,27.5 15.2,27.5 11.1,37.4 8,37.4 8,37 7.9,35.9 7.8,34.4 7.7,32.6 7.6,30.8 7.5,29.2 7.4,28 7.4,27.5 7.4,27.5 7.3,27.5 
		7.3,27.5 7.3,27.5 	"/>
	<g>
		<g>
			<polyline fill="none" stroke="#FFFFFF" stroke-width="0.215" points="5.6,37.4 2.8,37.4 5.1,24.2 9.9,24.2 10.4,32.1 13.7,24.2 
				18.7,24.2 16.3,37.4 13.6,37.4 15.3,27.5 15.2,27.5 11.1,37.4 8,37.4 8,37.4 8,37 7.9,35.9 7.8,34.4 7.7,32.6 7.6,30.8 7.5,29.2 
				7.4,28 7.4,27.5 7.4,27.5 7.4,27.5 7.3,27.5 7.3,27.5 7.3,27.5 5.6,37.4 			"/>
		</g>
	</g>
	<polygon fill="#FFFFFF" points="76.9,35.2 76.5,37.4 74,37.4 74,37 74,36.7 74,36.4 74,36.3 73.9,36.4 73.8,36.6 73.6,36.7 
		73.4,36.9 73.2,37 72.9,37.1 72.7,37.2 72.4,37.3 72.1,37.4 71.9,37.5 71.6,37.5 71.3,37.6 71,37.6 70.7,37.6 70.4,37.6 70.2,37.5 
		69.8,37.5 69.5,37.4 69.2,37.2 68.9,37.1 68.7,36.9 68.5,36.7 68.4,36.5 68.2,36.3 68.1,36.1 68,35.9 67.9,35.7 67.9,35.5 
		67.8,35.2 67.8,35 67.8,34.8 67.8,34.5 67.8,34.2 67.9,33.8 68,33.4 68.1,33.1 68.2,32.8 68.4,32.5 68.6,32.2 68.9,31.9 69.1,31.7 
		69.4,31.5 69.7,31.3 70,31.1 70.3,31 70.7,30.9 71,30.8 71.3,30.7 71.4,30.7 71.4,30.7 71.5,30.7 71.6,30.7 71.7,30.7 71.9,30.7 
		72,30.6 72.2,30.6 72.3,30.6 72.5,30.6 72.7,30.6 72.9,30.6 73,30.5 73.2,30.5 73.3,30.5 73.4,30.5 73.7,30.5 73.9,30.5 74.1,30.5 
		74.4,30.5 74.6,30.6 74.7,30.6 74.8,30.6 74.8,30.6 74.9,30.5 74.9,30.3 74.9,30.1 74.9,29.9 74.9,29.7 74.8,29.5 74.7,29.3 
		74.5,29.2 74.4,29 74.1,28.9 73.9,28.9 73.7,28.9 73.4,28.9 73.1,28.8 72.8,28.8 72.5,28.9 72.1,28.9 71.8,28.9 71.5,28.9 71.2,29 
		70.9,29 70.6,29.1 70.3,29.1 70.1,29.2 69.8,29.2 69.7,29.3 69.5,29.4 69.4,29.4 70.1,27 70.3,26.9 70.6,26.8 70.8,26.7 71,26.7 
		71.3,26.6 71.6,26.6 71.8,26.6 72.1,26.5 72.4,26.5 72.7,26.5 73,26.5 73.3,26.5 73.6,26.5 73.9,26.5 74.2,26.5 74.6,26.5 
		74.9,26.5 75.2,26.6 75.5,26.7 75.8,26.8 76.1,26.9 76.4,27 76.7,27.2 77,27.4 77.3,27.6 77.5,27.8 77.7,28.1 77.9,28.4 78,28.7 
		78,29.1 78,29.5 78,29.9 	"/>
	<polygon fill="#FFFFFF" points="76.5,37.5 76.6,37.5 77,35.2 76.9,35.2 76.5,37.4 76.5,37.4 76.5,37.5 76.6,37.5 76.6,37.5 	"/>
	<polygon fill="#FFFFFF" points="73.9,37.4 74,37.5 76.5,37.5 76.5,37.4 74,37.4 74,37.4 73.9,37.4 73.9,37.5 74,37.5 	"/>
	<polygon fill="#FFFFFF" points="74.1,36.3 74,36.2 74,36.4 73.9,36.7 73.9,37 73.9,37.4 74,37.4 74.1,37 74.1,36.7 74.1,36.4 
		74.1,36.3 74,36.2 	"/>
	<polygon fill="#FFFFFF" points="70.2,37.6 70.2,37.6 70.4,37.6 70.7,37.7 71,37.7 71.3,37.6 71.6,37.6 71.9,37.6 72.1,37.5 
		72.4,37.4 72.7,37.3 72.9,37.2 73.2,37 73.4,36.9 73.6,36.8 73.8,36.6 74,36.5 74.1,36.3 74,36.2 73.9,36.4 73.7,36.5 73.5,36.7 
		73.3,36.8 73.1,36.9 72.9,37 72.6,37.2 72.4,37.3 72.1,37.4 71.8,37.4 71.6,37.5 71.3,37.5 71,37.5 70.7,37.6 70.4,37.5 70.2,37.5 
		70.2,37.5 	"/>
	<polygon fill="#FFFFFF" points="67.7,34.5 67.7,34.5 67.7,34.8 67.7,35 67.8,35.2 67.8,35.5 67.9,35.7 67.9,35.9 68,36.1 
		68.2,36.4 68.3,36.6 68.5,36.8 68.7,37 68.9,37.1 69.2,37.3 69.5,37.4 69.8,37.5 70.2,37.6 70.2,37.5 69.8,37.4 69.5,37.3 
		69.2,37.2 69,37 68.8,36.9 68.6,36.7 68.4,36.5 68.3,36.3 68.2,36.1 68.1,35.9 68,35.7 67.9,35.4 67.9,35.2 67.9,35 67.8,34.8 
		67.9,34.5 67.9,34.5 	"/>
	<polygon fill="#FFFFFF" points="71.3,30.7 71.3,30.7 71,30.7 70.6,30.8 70.3,30.9 70,31.1 69.7,31.2 69.4,31.4 69.1,31.6 
		68.8,31.9 68.6,32.1 68.4,32.4 68.2,32.7 68,33.1 67.9,33.4 67.8,33.8 67.7,34.2 67.7,34.5 67.9,34.5 67.9,34.2 67.9,33.8 68,33.4 
		68.2,33.1 68.3,32.8 68.5,32.5 68.7,32.2 68.9,32 69.2,31.7 69.5,31.5 69.7,31.4 70,31.2 70.4,31.1 70.7,30.9 71,30.9 71.3,30.8 
		71.3,30.8 	"/>
	<polygon fill="#FFFFFF" points="73.4,30.5 73.4,30.5 73.3,30.5 73.2,30.5 73,30.5 72.9,30.5 72.7,30.5 72.5,30.5 72.3,30.5 
		72.2,30.6 72,30.6 71.9,30.6 71.7,30.6 71.6,30.6 71.5,30.6 71.4,30.7 71.4,30.7 71.3,30.7 71.3,30.8 71.4,30.8 71.4,30.8 
		71.5,30.8 71.6,30.8 71.7,30.7 71.9,30.7 72,30.7 72.2,30.7 72.3,30.7 72.5,30.6 72.7,30.6 72.9,30.6 73,30.6 73.2,30.6 73.3,30.6 
		73.4,30.6 73.4,30.6 	"/>
	<polygon fill="#FFFFFF" points="74.8,30.6 74.8,30.5 74.8,30.5 74.7,30.5 74.6,30.5 74.4,30.5 74.1,30.5 73.9,30.5 73.7,30.5 
		73.4,30.5 73.4,30.6 73.7,30.6 73.9,30.6 74.1,30.6 74.4,30.6 74.6,30.6 74.7,30.6 74.8,30.6 74.8,30.6 74.9,30.6 74.8,30.6 
		74.9,30.6 74.9,30.6 	"/>
	<polygon fill="#FFFFFF" points="74.9,29.9 74.9,29.9 74.9,30.1 74.8,30.3 74.8,30.5 74.8,30.6 74.9,30.6 74.9,30.5 75,30.3 
		75,30.1 75,29.9 75,29.9 	"/>
	<polygon fill="#FFFFFF" points="73.7,28.9 73.7,28.9 73.9,28.9 74.1,29 74.3,29.1 74.5,29.2 74.6,29.4 74.8,29.5 74.8,29.7 
		74.9,29.9 75,29.9 75,29.7 74.9,29.5 74.7,29.3 74.6,29.1 74.4,29 74.2,28.9 73.9,28.8 73.7,28.8 73.7,28.8 	"/>
	<polygon fill="#FFFFFF" points="69.4,29.4 69.5,29.5 69.6,29.4 69.7,29.3 69.9,29.3 70.1,29.2 70.3,29.2 70.6,29.1 70.9,29.1 
		71.2,29 71.5,29 71.8,29 72.1,28.9 72.5,28.9 72.8,28.9 73.1,28.9 73.4,28.9 73.7,28.9 73.7,28.8 73.4,28.8 73.1,28.8 72.8,28.8 
		72.5,28.8 72.1,28.8 71.8,28.8 71.5,28.9 71.2,28.9 70.9,29 70.6,29 70.3,29.1 70.1,29.1 69.8,29.2 69.6,29.2 69.5,29.3 69.4,29.4 
		69.5,29.4 	"/>
	<polygon fill="#FFFFFF" points="70.1,26.9 70.1,27 69.4,29.4 69.5,29.4 70.2,27 70.1,27 70.1,26.9 70.1,26.9 70.1,27 	"/>
	<polygon fill="#FFFFFF" points="74.6,26.5 74.6,26.5 74.2,26.4 73.9,26.4 73.6,26.4 73.3,26.4 73,26.4 72.7,26.4 72.4,26.5 
		72.1,26.5 71.8,26.5 71.5,26.5 71.3,26.6 71,26.6 70.8,26.7 70.6,26.8 70.3,26.8 70.1,26.9 70.1,27 70.4,27 70.6,26.9 70.8,26.8 
		71.1,26.8 71.3,26.7 71.6,26.7 71.8,26.6 72.1,26.6 72.4,26.6 72.7,26.6 73,26.6 73.3,26.6 73.6,26.6 73.9,26.6 74.2,26.6 
		74.6,26.6 74.6,26.6 	"/>
	<polygon fill="#FFFFFF" points="78.1,29.9 78.1,29.9 78.1,29.5 78.1,29.1 78,28.7 77.9,28.4 77.8,28.1 77.6,27.8 77.3,27.5 
		77.1,27.3 76.8,27.1 76.5,27 76.1,26.8 75.8,26.7 75.5,26.6 75.2,26.5 74.9,26.5 74.6,26.5 74.6,26.6 74.9,26.6 75.2,26.7 
		75.5,26.7 75.8,26.8 76.1,26.9 76.4,27.1 76.7,27.2 77,27.4 77.2,27.6 77.5,27.9 77.7,28.1 77.8,28.4 77.9,28.8 78,29.1 78,29.5 
		77.9,29.9 77.9,29.9 	"/>
	<polygon fill="#FFFFFF" points="77,35.2 77,35.2 78.1,29.9 77.9,29.9 76.9,35.2 76.9,35.2 	"/>
	<polygon fill="#FAB41E" points="74.5,32.6 74.5,32.5 74.4,32.5 74.4,32.4 74.3,32.4 74.1,32.4 74,32.4 73.9,32.4 73.7,32.4 
		73.6,32.4 73.4,32.4 73.2,32.4 73.1,32.5 72.9,32.5 72.8,32.5 72.7,32.5 72.6,32.6 72.5,32.6 72.4,32.6 72.3,32.6 72.2,32.7 
		72.1,32.7 71.9,32.8 71.8,32.9 71.7,33 71.5,33.1 71.4,33.2 71.3,33.3 71.2,33.4 71.1,33.5 71,33.7 71,33.9 70.9,34 70.9,34.4 
		71,34.6 71.1,34.8 71.2,35 71.3,35.1 71.5,35.2 71.7,35.2 71.8,35.2 72.1,35.2 72.4,35.2 72.7,35.1 72.9,35 73.1,35 73.3,34.9 
		73.5,34.8 73.7,34.6 73.8,34.5 73.9,34.4 74.1,34.3 74.1,34.2 74.2,34 74.3,33.9 74.3,33.8 74.3,33.7 74.4,33.4 74.4,33.1 
		74.5,32.8 	"/>
	<g>
		<g>
			<polygon fill="#FFFFFF" points="95.3,36.1 95.3,35.8 95.4,35.6 95.5,35.3 95.7,35.1 95.9,34.9 96.2,34.8 96.4,34.7 96.7,34.7 
				97,34.7 97.2,34.8 97.5,34.9 97.7,35.1 97.9,35.3 98,35.6 98.1,35.8 98.1,36.1 97.8,36.1 97.8,35.9 97.7,35.7 97.6,35.5 
				97.5,35.3 97.3,35.1 97.2,35 96.9,35 96.7,34.9 96.5,35 96.2,35 96.1,35.1 95.9,35.3 95.8,35.5 95.7,35.7 95.6,35.9 95.6,36.1 
							"/>
			<polygon fill="#FFFFFF" points="96.2,36.1 96.2,35.5 96.7,35.5 96.9,35.5 97,35.5 97.1,35.5 97.1,35.6 97.2,35.6 97.2,35.7 
				97.2,35.7 97.3,35.8 97.2,35.9 97.2,36 97.2,36 97.2,36.1 96.7,36.1 96.8,36 96.9,36 96.9,36 97,36 97,36 97,35.9 97.1,35.9 
				97.1,35.8 97,35.8 97,35.7 97,35.7 97,35.7 96.9,35.7 96.9,35.7 96.8,35.7 96.7,35.7 96.4,35.7 96.4,36.1 			"/>
			<polygon fill="#FFFFFF" points="95.3,36.1 95.3,36.1 95.3,36.4 95.4,36.7 95.5,36.9 95.7,37.1 95.9,37.3 96.2,37.4 96.4,37.5 
				96.7,37.5 97,37.5 97.2,37.4 97.5,37.3 97.7,37.1 97.9,36.9 98,36.7 98.1,36.4 98.1,36.1 98.1,36.1 97.8,36.1 97.8,36.1 
				97.8,36.4 97.7,36.6 97.6,36.8 97.5,36.9 97.3,37.1 97.2,37.2 96.9,37.3 96.7,37.3 96.5,37.3 96.2,37.2 96.1,37.1 95.9,36.9 
				95.8,36.8 95.7,36.6 95.6,36.4 95.6,36.1 95.6,36.1 			"/>
			<polygon fill="#FFFFFF" points="96.2,36.1 96.2,36.7 96.4,36.7 96.4,36.2 96.7,36.2 97,36.7 97.2,36.7 96.9,36.2 97,36.2 
				97,36.1 97.1,36.1 97.2,36.1 97.2,36.1 96.7,36.1 96.7,36.1 96.4,36.1 96.4,36.1 			"/>
		</g>
	</g>
	<g>
		<g>
			<polyline fill="none" stroke="#FFFFFF" stroke-width="0.215" points="95.3,36.1 95.3,36.1 95.3,35.8 95.4,35.6 95.5,35.3 
				95.7,35.1 95.9,34.9 96.2,34.8 96.4,34.7 96.7,34.7 96.7,34.7 97,34.7 97.2,34.8 97.5,34.9 97.7,35.1 97.9,35.3 98,35.6 
				98.1,35.8 98.1,36.1 98.1,36.1 98.1,36.4 98,36.7 97.9,36.9 97.7,37.1 97.5,37.3 97.2,37.4 97,37.5 96.7,37.5 96.7,37.5 
				96.4,37.5 96.2,37.4 95.9,37.3 95.7,37.1 95.5,36.9 95.4,36.7 95.3,36.4 95.3,36.1 			"/>
		</g>
	</g>
	<g>
		<g>
			<polyline fill="none" stroke="#FFFFFF" stroke-width="0.215" points="96.4,36.7 96.2,36.7 96.2,35.5 96.7,35.5 96.7,35.5 
				96.9,35.5 97,35.5 97.1,35.5 97.1,35.6 97.2,35.6 97.2,35.7 97.2,35.7 97.3,35.8 97.3,35.8 97.2,35.9 97.2,36 97.2,36 97.2,36.1 
				97.1,36.1 97,36.1 97,36.2 96.9,36.2 97.2,36.7 97,36.7 96.7,36.2 96.4,36.2 96.4,36.7 			"/>
		</g>
	</g>
	<g>
		<g>
			<polyline fill="none" stroke="#FFFFFF" stroke-width="0.215" points="96.7,36.1 96.7,36.1 96.8,36 96.9,36 96.9,36 97,36 97,36 
				97,35.9 97.1,35.9 97.1,35.8 97.1,35.8 97,35.8 97,35.7 97,35.7 97,35.7 96.9,35.7 96.9,35.7 96.8,35.7 96.7,35.7 96.4,35.7 
				96.4,36.1 96.7,36.1 			"/>
		</g>
	</g>
	<g>
		<g>
			<polyline fill="none" stroke="#FFFFFF" stroke-width="0.215" points="96.7,37.3 96.7,37.3 96.9,37.3 97.2,37.2 97.3,37.1 
				97.5,36.9 97.6,36.8 97.7,36.6 97.8,36.4 97.8,36.1 97.8,36.1 97.8,35.9 97.7,35.7 97.6,35.5 97.5,35.3 97.3,35.1 97.2,35 
				96.9,35 96.7,34.9 96.7,34.9 96.5,35 96.2,35 96.1,35.1 95.9,35.3 95.8,35.5 95.7,35.7 95.6,35.9 95.6,36.1 95.6,36.1 95.6,36.4 
				95.7,36.6 95.8,36.8 95.9,36.9 96.1,37.1 96.2,37.2 96.5,37.3 96.7,37.3 			"/>
		</g>
	</g>
	<polygon fill="#FFFFFF" points="77.7,37.4 80.5,37.4 80.5,37.4 81.6,31.7 81.6,31.5 81.7,31.3 81.7,31 81.8,30.8 81.9,30.6 
		82,30.4 82.2,30.2 82.3,30 82.5,29.8 82.7,29.6 82.9,29.5 83.2,29.4 83.5,29.3 83.8,29.2 84.2,29.1 84.6,29.1 84.7,29.1 84.8,29.1 
		84.8,29.1 84.8,29.1 85.3,26.5 85,26.5 84.7,26.6 84.5,26.6 84.2,26.7 84,26.8 83.8,26.9 83.6,27 83.4,27.1 83.2,27.2 83,27.4 
		82.9,27.5 82.7,27.7 82.6,27.9 82.4,28.1 82.3,28.3 82.1,28.5 82.4,26.6 79.6,26.6 77.7,37.4 	"/>
	<g>
		<g>
			<polyline fill="none" stroke="#FFFFFF" stroke-width="0.215" points="77.7,37.4 80.5,37.4 80.5,37.4 81.6,31.7 81.6,31.7 
				81.6,31.5 81.7,31.3 81.7,31 81.8,30.8 81.9,30.6 82,30.4 82.2,30.2 82.3,30 82.5,29.8 82.7,29.6 82.9,29.5 83.2,29.4 83.5,29.3 
				83.8,29.2 84.2,29.1 84.6,29.1 84.6,29.1 84.7,29.1 84.8,29.1 84.8,29.1 84.8,29.1 85.3,26.5 85.3,26.5 85,26.5 84.7,26.6 
				84.5,26.6 84.2,26.7 84,26.8 83.8,26.9 83.6,27 83.4,27.1 83.2,27.2 83,27.4 82.9,27.5 82.7,27.7 82.6,27.9 82.4,28.1 82.3,28.3 
				82.1,28.5 82.4,26.6 79.6,26.6 77.7,37.4 77.7,37.4 			"/>
		</g>
	</g>
	<polygon fill="#FFFFFF" points="51,37.4 53.8,37.4 53.9,37.4 54.8,31.7 54.9,31.5 54.9,31.3 55,31.1 55,30.9 55.1,30.6 55.2,30.5 
		55.3,30.3 55.5,30.1 55.6,30 55.8,29.8 56,29.7 56.3,29.6 56.6,29.5 56.9,29.4 57.2,29.3 57.6,29.3 57.7,29.3 57.7,29.3 57.7,29.3 
		57.8,29.3 57.8,29.3 57.9,29.4 57.9,29.4 57.9,29.4 57.9,29.3 58,29.2 58,29 58.1,28.8 58.1,28.5 58.2,28.3 58.3,28 58.4,27.7 
		58.5,27.5 58.6,27.3 58.7,27.1 58.8,26.9 58.9,26.8 58.9,26.7 59,26.6 59,26.6 59,26.6 58.9,26.6 58.9,26.5 58.8,26.5 58.8,26.5 
		58.7,26.5 58.6,26.5 58.5,26.5 58.2,26.5 57.9,26.6 57.7,26.6 57.4,26.7 57.2,26.8 57,26.9 56.8,27 56.6,27.1 56.4,27.2 56.3,27.4 
		56.1,27.5 56,27.7 55.8,27.9 55.7,28.1 55.5,28.3 55.4,28.5 55.7,26.6 52.8,26.6 51,37.4 	"/>
	<g>
		<g>
			<polyline fill="none" stroke="#FFFFFF" stroke-width="0.215" points="51,37.4 53.8,37.4 53.9,37.4 54.8,31.7 54.8,31.7 
				54.9,31.5 54.9,31.3 55,31.1 55,30.9 55.1,30.6 55.2,30.5 55.3,30.3 55.5,30.1 55.6,30 55.8,29.8 56,29.7 56.3,29.6 56.6,29.5 
				56.9,29.4 57.2,29.3 57.6,29.3 57.6,29.3 57.7,29.3 57.7,29.3 57.7,29.3 57.8,29.3 57.8,29.3 57.9,29.4 57.9,29.4 57.9,29.4 
				57.9,29.4 57.9,29.3 58,29.2 58,29 58.1,28.8 58.1,28.5 58.2,28.3 58.3,28 58.4,27.7 58.4,27.7 58.5,27.5 58.6,27.3 58.7,27.1 
				58.8,26.9 58.9,26.8 58.9,26.7 59,26.6 59,26.6 59,26.6 59,26.6 58.9,26.6 58.9,26.5 58.8,26.5 58.8,26.5 58.7,26.5 58.6,26.5 
				58.5,26.5 58.5,26.5 58.2,26.5 57.9,26.6 57.7,26.6 57.4,26.7 57.2,26.8 57,26.9 56.8,27 56.6,27.1 56.4,27.2 56.3,27.4 
				56.1,27.5 56,27.7 55.8,27.9 55.7,28.1 55.5,28.3 55.4,28.5 55.7,26.6 52.8,26.6 51,37.4 51,37.4 			"/>
		</g>
	</g>
	<g>
		<g>
			<polygon fill="#FAB41E" points="95.3,48.1 95.3,48 95.4,47.8 95.5,47.5 95.7,47.3 95.9,47.2 96.2,47 96.4,47 96.7,46.9 97,47 
				97.2,47 97.5,47.2 97.7,47.3 97.9,47.5 98,47.8 98.1,48 98.1,48.1 97.8,48.1 97.7,47.8 97.6,47.7 97.5,47.5 97.3,47.3 97.2,47.2 
				96.9,47.2 96.7,47.1 96.5,47.2 96.2,47.2 96.1,47.3 95.9,47.5 95.8,47.7 95.7,47.8 95.6,48.1 			"/>
			<polygon fill="#FAB41E" points="96.2,48.1 96.2,47.7 96.7,47.7 96.9,47.7 97,47.7 97.1,47.7 97.1,47.8 97.2,47.8 97.2,47.9 
				97.2,48 97.3,48.1 97.1,48.1 97.1,48 97,48 97,47.9 97,47.9 97,47.9 96.9,47.9 96.9,47.9 96.8,47.9 96.7,47.9 96.4,47.9 
				96.4,48.1 			"/>
			<polygon fill="#FAB41E" points="95.3,48.3 95.3,48.1 95.6,48.1 95.6,48.1 95.6,48.3 			"/>
			<polygon fill="#FAB41E" points="96.2,48.3 96.2,48.1 96.4,48.1 96.4,48.3 96.7,48.3 96.8,48.2 96.9,48.2 96.9,48.2 97,48.2 
				97,48.2 97,48.1 97.1,48.1 97.1,48.1 97.3,48.1 97.3,48.1 97.2,48.1 97.2,48.2 97.2,48.2 97.2,48.3 			"/>
			<polygon fill="#FAB41E" points="97.8,48.3 97.8,48.1 97.8,48.1 98.1,48.1 98.1,48.3 			"/>
			<polygon fill="#FAB41E" points="95.3,48.3 95.3,48.3 95.3,48.6 95.4,48.9 95.5,49.1 95.7,49.3 95.9,49.5 96.2,49.6 96.4,49.7 
				96.7,49.7 97,49.7 97.2,49.6 97.5,49.5 97.7,49.3 97.9,49.1 98,48.9 98.1,48.6 98.1,48.3 98.1,48.3 97.8,48.3 97.8,48.3 
				97.8,48.6 97.7,48.8 97.6,49 97.5,49.1 97.3,49.3 97.2,49.4 96.9,49.5 96.7,49.5 96.5,49.5 96.2,49.4 96.1,49.3 95.9,49.1 
				95.8,49 95.7,48.8 95.6,48.6 95.6,48.3 95.6,48.3 			"/>
			<polygon fill="#FAB41E" points="96.2,48.3 96.2,48.9 96.4,48.9 96.4,48.4 96.7,48.4 97,48.9 97.2,48.9 96.9,48.4 97,48.4 
				97,48.3 97.1,48.3 97.2,48.3 97.2,48.3 			"/>
		</g>
	</g>
</g>
</svg>
