<svg xmlns="http://www.w3.org/2000/svg" xmlns:xlink="http://www.w3.org/1999/xlink" version="1.1" id="mistercash" x="0px" y="0px" viewBox="0 0 100 61" enable-background="new 0 0 100 61" xml:space="preserve"><g><path fill-rule="evenodd" clip-rule="evenodd" fill="#FFFFFF" stroke="#0072BA" stroke-width="1.8887" stroke-miterlimit="2.6131" d=" M50 1h41.8C97.3 1 99 5.1 99 7.9l0 44.4c0 2.8-1.7 6.9-7.2 6.9l-83.5 0c-5.5 0-7.2-4.2-7.2-6.9V7.9C1 5.1 2.8 1 8.2 1H50L50 1z"/><polygon fill-rule="evenodd" clip-rule="evenodd" fill="#0072BA" points="30.4,34.8 45.6,34.8 54.1,25.7 69.4,25.7 56.4,40.1 8.4,40.1 8.4,30.5 34.2,30.5 30.4,34.8"/><polygon fill-rule="evenodd" clip-rule="evenodd" fill="#FFE320" points="69.4,25.7 54.1,25.7 45.6,34.8 30.2,34.8 43.2,20.4 91.3,20.4 91.3,30 65.6,30 69.4,25.7"/><path fill-rule="evenodd" clip-rule="evenodd" fill="#0072BA" d="M85.2 16.8c-0.7 0.4-1.6 0.6-2.5 0.6c-2.5 0-4.7-1.8-4.7-4.4 s2-4.4 4.5-4.4c0.9 0 1.9 0.2 2.6 0.6V12c-0.5-0.5-1.3-0.6-2.3-0.6C82 11.3 81 12 81 13.2c0 1 1 1.6 1.9 1.6c1 0 1.6-0.1 2.3-0.6 V16.8L85.2 16.8z"/><path fill-rule="evenodd" clip-rule="evenodd" fill="#0072BA" d="M91.4 14.7v2.1c-2.2 1.6-4.7 0.3-4.7-1.6v-3.8h-1.1V8.9h1.1v-2 l3-1.6v3.6h1.7v2.3h-1.6v3.5C89.9 15.3 90.9 15.3 91.4 14.7L91.4 14.7z"/><path fill-rule="evenodd" clip-rule="evenodd" fill="#0072BA" d="M69.7 11.6l0.5-2.3c3-1 7.3-0.4 7.3 2.3v5.7h-2.8L74.6 17 c-1.3 0.8-6 1.2-5.4-2.5c0.4-2.2 2.9-2.8 4.5-2.8c0.8 0 1.1-0.8 0.1-0.8C72.9 10.8 71 10.9 69.7 11.6L69.7 11.6z"/><path fill-rule="evenodd" clip-rule="evenodd" fill="#0072BA" d="M19 11.6l0.4-2.3c3-1 7.3-0.4 7.3 2.3v5.7h-2.8L23.9 17 c-1.2 0.8-6.1 1.2-5.4-2.5c0.4-2.2 2.8-2.8 4.4-2.8c0.8 0 1.1-0.8 0.2-0.8C22.1 10.8 20.3 10.9 19 11.6L19 11.6z"/><path fill-rule="evenodd" clip-rule="evenodd" fill="#0072BA" d="M53.4 13.2c0 2.5-2.1 4.3-4.6 4.3c-2.5 0-4.7-1.9-4.7-4.4 c0-2.5 2.1-4.4 4.6-4.4C51.3 8.6 53.4 10.6 53.4 13.2L53.4 13.2z"/><path fill-rule="evenodd" clip-rule="evenodd" fill="#0072BA" d="M68.7 14.7v2.1c-2.3 1.6-4.7 0.3-4.7-1.6v-3.8h-1.1V8.9H64v-2 L67 5.3v3.6h1.7v2.3h-1.6v3.5C67.1 15.3 68.2 15.3 68.7 14.7L68.7 14.7z"/><path fill-rule="evenodd" clip-rule="evenodd" fill="#0072BA" d="M14 4.7c2.8 0 4.8 3.7 2.3 6.1c3.2 2 1.8 6.4-1.8 6.5h-6V4.7H14 L14 4.7z"/><path fill-rule="evenodd" clip-rule="evenodd" fill="#0072BA" d="M43.6 16.8c-0.7 0.4-1.5 0.6-2.4 0.6c-2.5 0-4.7-1.8-4.7-4.4 s2-4.4 4.5-4.4c0.9 0 1.9 0.2 2.6 0.6V12c-0.6-0.5-1.3-0.6-2.2-0.6c-0.9 0-1.9 0.7-1.9 1.8c0 1 1.1 1.6 1.9 1.6 c0.9 0 1.5-0.1 2.2-0.6V16.8L43.6 16.8z"/><path fill-rule="evenodd" clip-rule="evenodd" fill="#0072BA" d="M35.9 11.8v5.5h-3v-4.7c0-1.7-2.4-1.6-2.4 0v4.7h-3V8.9h3.1v0.7 C33.1 7.7 35.9 9.4 35.9 11.8L35.9 11.8z"/><path fill-rule="evenodd" clip-rule="evenodd" fill="#0072BA" d="M62.5 11.8v5.5h-3v-4.7c0-1.7-2.4-1.6-2.4 0v4.7h-3V8.9h3v0.7 C59.6 7.7 62.5 9.4 62.5 11.8L62.5 11.8z"/><path fill-rule="evenodd" clip-rule="evenodd" fill="#0072BA" d="M73.8 10.9c1 0.1 0.7 0.8-0.1 0.8c-1.6 0-4.1 0.5-4.5 2.8 c-0.6 3.7 4.1 3.4 5.4 2.5l0.1 0.3h2.8v-5.7c0-2.7-4.3-3.3-7.3-2.3l-0.5 2.3C71 10.9 72.9 10.8 73.8 10.9L73.8 10.9z"/><path fill-rule="evenodd" clip-rule="evenodd" fill="#0072BA" d="M23.1 10.9c1 0.1 0.6 0.8-0.2 0.8c-1.6 0-4 0.5-4.4 2.8 c-0.8 3.7 4.1 3.4 5.4 2.5l0.1 0.3h2.8v-5.7c0-2.7-4.3-3.3-7.3-2.3L19 11.6C20.3 10.9 22.1 10.8 23.1 10.9L23.1 10.9z"/><path fill-rule="evenodd" clip-rule="evenodd" fill="#0072BA" d="M48.8 8.6c-2.5 0-4.6 1.9-4.6 4.4c0 2.5 2.1 4.4 4.7 4.4 c2.5 0 4.6-1.8 4.6-4.3C53.4 10.6 51.3 8.6 48.8 8.6L48.8 8.6z"/><path fill-rule="evenodd" clip-rule="evenodd" fill="#0072BA" d="M67.1 14.7v-3.5h1.6V8.9H67V5.3L64 6.9v2h-1.1v2.5H64v3.8 c0 1.9 2.5 3.2 4.7 1.6v-2.1C68.2 15.3 67.1 15.3 67.1 14.7L67.1 14.7z"/><path fill-rule="evenodd" clip-rule="evenodd" fill="#0072BA" d="M8.5 4.7v12.5h6c3.6-0.1 5-4.5 1.8-6.5c2.6-2.3 0.5-6.1-2.3-6.1 H8.5L8.5 4.7z"/><path fill-rule="evenodd" clip-rule="evenodd" fill="#0072BA" d="M43.6 14.1c-0.7 0.5-1.3 0.6-2.2 0.6c-0.9 0-1.9-0.6-1.9-1.6 c0-1.1 1-1.8 1.9-1.8c0.9 0 1.6 0.2 2.2 0.6V9.3c-0.7-0.4-1.7-0.6-2.6-0.6c-2.5 0-4.5 1.8-4.5 4.4s2.1 4.4 4.7 4.4 c0.9 0 1.7-0.2 2.4-0.6V14.1L43.6 14.1z"/><path fill-rule="evenodd" clip-rule="evenodd" fill="#0072BA" d="M30.6 9.6V8.9h-3.1v8.4h3v-4.7c0-1.6 2.4-1.7 2.4 0v4.7h3v-5.5 C35.9 9.4 33.1 7.7 30.6 9.6L30.6 9.6z"/><path fill-rule="evenodd" clip-rule="evenodd" fill="#0072BA" d="M57 9.6V8.9h-3v8.4h3v-4.7c0-1.6 2.4-1.7 2.4 0v4.7h3v-5.5 C62.5 9.4 59.6 7.7 57 9.6L57 9.6z"/><path fill-rule="evenodd" clip-rule="evenodd" fill="#0072BA" d="M85.2 14.1c-0.7 0.5-1.3 0.6-2.3 0.6c-0.9 0-1.9-0.6-1.9-1.6 c0-1.1 1-1.8 1.9-1.8c0.9 0 1.7 0.2 2.3 0.6V9.3c-0.7-0.4-1.7-0.6-2.6-0.6c-2.5 0-4.5 1.8-4.5 4.4s2.2 4.4 4.7 4.4 c0.9 0 1.8-0.2 2.5-0.6V14.1L85.2 14.1z"/><path fill-rule="evenodd" clip-rule="evenodd" fill="#0072BA" d="M89.9 14.7v-3.5h1.6V8.9h-1.7V5.3l-3 1.6v2h-1.1v2.5h1.1v3.8 c0 1.9 2.5 3.2 4.7 1.6v-2.1C90.9 15.3 89.9 15.3 89.9 14.7L89.9 14.7z"/><path fill-rule="evenodd" clip-rule="evenodd" fill="#0072BA" d="M50.5 13.2c0 0.9-0.8 1.7-1.7 1.7c-0.9 0-1.7-0.8-1.7-1.8 c0-1.1 0.8-1.7 1.7-1.7C49.7 11.4 50.5 12 50.5 13.2L50.5 13.2z"/><path fill-rule="evenodd" clip-rule="evenodd" fill="#0072BA" d="M11.9 12.2h1.3c1.7 0 1.8 2.5 0.1 2.5h-1.4V12.2L11.9 12.2z"/><path fill-rule="evenodd" clip-rule="evenodd" fill="#0072BA" d="M23.8 13.6v1c0 1.1-2.3 1.5-2.3 0.3 C21.5 13.8 23.1 13.5 23.8 13.6L23.8 13.6z"/><path fill-rule="evenodd" clip-rule="evenodd" fill="#0072BA" d="M74.5 13.6v1c0 1.1-2.2 1.5-2.2 0.3 C72.3 13.8 73.9 13.5 74.5 13.6L74.5 13.6z"/><path fill-rule="evenodd" clip-rule="evenodd" fill="#0072BA" d="M13.2 7.2c1.6 0.7 1 2.4 0.1 2.4h-1.4V7.2 C11.9 7.2 12.9 7.1 13.2 7.2L13.2 7.2z"/><path fill-rule="evenodd" clip-rule="evenodd" fill="#FFFFFF" d="M48.8 11.4c-0.9 0-1.7 0.6-1.7 1.7c0 1 0.8 1.8 1.7 1.8 c0.9 0 1.7-0.8 1.7-1.7C50.5 12 49.7 11.4 48.8 11.4L48.8 11.4z"/><path fill-rule="evenodd" clip-rule="evenodd" fill="#FFFFFF" d="M72.3 14.9c0 1.2 2.2 0.9 2.2-0.3v-1 C73.9 13.5 72.3 13.8 72.3 14.9L72.3 14.9z"/><path fill-rule="evenodd" clip-rule="evenodd" fill="#FFFFFF" d="M11.9 7.2v2.4h1.4c1 0 1.5-1.7-0.1-2.4 C12.9 7.1 11.9 7.2 11.9 7.2L11.9 7.2z"/><path fill-rule="evenodd" clip-rule="evenodd" fill="#FFFFFF" d="M21.5 14.9c0 1.2 2.3 0.9 2.3-0.3v-1 C23.1 13.5 21.5 13.8 21.5 14.9L21.5 14.9z"/><path fill-rule="evenodd" clip-rule="evenodd" fill="#FFFFFF" d="M11.9 14.7h1.4c1.8 0 1.6-2.5-0.1-2.5h-1.3V14.7L11.9 14.7z"/><path fill-rule="evenodd" clip-rule="evenodd" fill="#0072BA" d="M45.8 51.4c0-2.9-1.2-4.8-4.1-4.8c-2.8 0-4.5 2.1-4.5 4.5 c0 2.6 2 4.5 4.8 4.5c2.4 0 3.6-1 3.6-1v-2.5c-1 0.5-2.1 0.9-3 0.9c-1.6 0-2.5-0.4-2.5-1.6H45.8L45.8 51.4z"/><polygon fill-rule="evenodd" clip-rule="evenodd" fill="#0072BA" points="14.3,51.9 16.7,48.3 16.7,55.4 19.9,55.4 20,43.1 16.7,43.1 14.3,46.8 11.7,43.1 8.5,43.1 8.5,55.4 11.7,55.4 11.7,48.3 14.3,51.9"/><path fill-rule="evenodd" clip-rule="evenodd" fill="#0072BA" d="M49.2 50.5c0.3-0.7 1-1.3 1.9-1.3c0.5 0 1 0.2 1.4 0.5V47 c-0.3-0.3-0.7-0.4-1.1-0.4c-0.8 0-1.8 0.4-2.2 1v-0.9h-2.9v8.7h2.9V50.5L49.2 50.5z"/><path fill-rule="evenodd" clip-rule="evenodd" fill="#0072BA" d="M24.6 54.9c1 0.4 2.3 0.6 3.1 0.6c3.1 0 4-1.6 4-3 c0-1.6-1.6-2.4-3.1-2.6c-0.2 0-0.8-0.2-0.8-0.4c0-0.2 0.2-0.5 0.9-0.5c0.6 0 1.7 0.2 2.2 0.5l-0.1-2.3c-0.8-0.3-1.9-0.5-2.8-0.5 c-1.8 0-3.3 1.1-3.3 2.8c0 1.4 1 2.1 2.5 2.4c0.6 0.1 1.2 0.3 1.2 0.6c0 0.4-0.4 0.5-0.9 0.5c-0.4 0-1.3 0.1-3-0.5V54.9L24.6 54.9z "/><path fill-rule="evenodd" clip-rule="evenodd" fill="#0072BA" d="M35.6 52.7v-3.6h1.7v-2.3h-1.8v-3.7l-3.1 1.6v2.1h-1.1v2.5h1.1 v3.9c0 1.9 2.5 3.2 4.8 1.6v-2.1C36.7 53.2 35.6 53.3 35.6 52.7L35.6 52.7z"/><polygon fill-rule="evenodd" clip-rule="evenodd" fill="#0072BA" points="24,55.3 24,46.9 20.8,46.9 20.8,55.3 24,55.3"/><path fill-rule="evenodd" clip-rule="evenodd" fill="#0072BA" d="M22.4 46.6c1 0 1.8-0.8 1.8-1.8c0-0.9-0.8-1.7-1.8-1.7 c-0.9 0-1.7 0.8-1.7 1.7C20.8 45.8 21.5 46.6 22.4 46.6L22.4 46.6z"/><path fill-rule="evenodd" clip-rule="evenodd" fill="#0072BA" d="M75.3 54.9c1 0.4 2.3 0.6 3.1 0.6c3.1 0 4.1-1.6 4.1-3 c0-1.6-1.6-2.4-3.1-2.6c-0.2 0-0.8-0.2-0.8-0.4c0-0.2 0.2-0.5 0.9-0.5c0.6 0 1.6 0.2 2.2 0.5l-0.2-2.3c-0.8-0.3-1.9-0.5-2.8-0.5 c-1.8 0-3.3 1.1-3.3 2.8c0 1.4 1 2.1 2.5 2.4c0.6 0.1 1.2 0.3 1.2 0.6c0 0.4-0.4 0.5-0.9 0.5c-0.4 0-1.3 0.1-3-0.5V54.9L75.3 54.9z "/><path fill-rule="evenodd" clip-rule="evenodd" fill="#0072BA" d="M65.9 51.8c-1 0.8-1.8 0.9-3.2 0.9c-2 0-3.9-1.7-3.9-3.4 c0-1.9 1-3.7 3.9-3.7c1.3 0 2.4 0.2 3.2 1v-2.9c-1-0.6-2.4-0.8-3.6-0.8c-3.7 0-6.5 2.6-6.5 6.3c0 3.6 3.1 6.3 6.8 6.3 c1.2 0 2.4-0.3 3.4-0.9V51.8L65.9 51.8z"/><path fill-rule="evenodd" clip-rule="evenodd" fill="#0072BA" d="M71 48.7c1 0.1 0.7 0.9-0.1 0.9c-1.6 0-4.2 0.5-4.5 2.8 c-0.7 3.8 4.1 3.5 5.4 2.6l0.1 0.2h2.9v-5.8c0-2.8-4.4-3.3-7.5-2.3l-0.4 2.3C68.2 48.8 70.1 48.7 71 48.7L71 48.7z"/><path fill-rule="evenodd" clip-rule="evenodd" fill="#0072BA" d="M85.9 47.5v-4.4h-3v12.3h3v-4.8c0-1.6 2.5-1.7 2.5 0v4.8h3.1v-5.6 C91.4 47.3 88.5 45.6 85.9 47.5L85.9 47.5z"/><path fill-rule="evenodd" clip-rule="evenodd" fill="#FFFFFF" d="M40.1 49.8c0.2-0.8 0.8-1.1 1.4-1.1c0.6 0 1.3 0.3 1.3 1.1H40.1 L40.1 49.8z"/><path fill-rule="evenodd" clip-rule="evenodd" fill="#FFFFFF" d="M71.7 51.5v1c0 1.2-2.3 1.5-2.3 0.3 C69.5 51.7 71.1 51.4 71.7 51.5L71.7 51.5z"/></g></svg>