<?xml version="1.0" encoding="utf-8"?>
<!-- Generator: Adobe Illustrator 19.0.0, SVG Export Plug-In . SVG Version: 6.00 Build 0)  -->
<!DOCTYPE svg PUBLIC "-//W3C//DTD SVG 1.1//EN" "http://www.w3.org/Graphics/SVG/1.1/DTD/svg11.dtd">
<svg version="1.1" id="VISA_Brand_Mark" xmlns="http://www.w3.org/2000/svg" xmlns:xlink="http://www.w3.org/1999/xlink" x="0px"
	 y="0px" viewBox="0 0 100 64" enable-background="new 0 0 100 64" xml:space="preserve">
<g>
	<path fill="#009CDE" d="M67.5,18.7h-7.8c-0.5,0-1,0.4-1.1,0.9l-3.1,19.9c-0.1,0.4,0.2,0.7,0.6,0.7h4c0.4,0,0.7-0.3,0.7-0.6l0.9-5.7
		c0.1-0.5,0.5-0.9,1.1-0.9h2.5c5.1,0,8.1-2.5,8.9-7.4c0.3-2.1,0-3.8-1-5C72,19.4,70.1,18.7,67.5,18.7 M68.4,26
		c-0.4,2.8-2.6,2.8-4.6,2.8h-1.2l0.8-5.2c0-0.3,0.3-0.5,0.6-0.5h0.5c1.4,0,2.7,0,3.4,0.8C68.4,24.3,68.5,25,68.4,26"/>
	<path fill="#003087" d="M12,18.7H4.2c-0.5,0-1,0.4-1.1,0.9L0,39.5c-0.1,0.4,0.2,0.7,0.6,0.7h3.7c0.5,0,1-0.4,1.1-0.9L6.3,34
		c0.1-0.5,0.5-0.9,1.1-0.9h2.5c5.1,0,8.1-2.5,8.9-7.4c0.3-2.1,0-3.8-1-5C16.6,19.4,14.6,18.7,12,18.7 M12.9,26
		c-0.4,2.8-2.6,2.8-4.6,2.8H7.1l0.8-5.2C8,23.2,8.2,23,8.6,23h0.5c1.4,0,2.7,0,3.4,0.8C12.9,24.3,13.1,25,12.9,26"/>
	<path fill="#003087" d="M35.2,25.9h-3.7c-0.3,0-0.6,0.2-0.6,0.5l-0.2,1l-0.3-0.4c-0.8-1.2-2.6-1.6-4.4-1.6c-4.1,0-7.6,3.1-8.3,7.5
		c-0.4,2.2,0.1,4.3,1.4,5.7c1.1,1.3,2.8,1.9,4.7,1.9c3.3,0,5.2-2.1,5.2-2.1l-0.2,1c-0.1,0.4,0.2,0.7,0.6,0.7h3.4
		c0.5,0,1-0.4,1.1-0.9l2-12.8C36,26.2,35.6,25.9,35.2,25.9 M30.1,33.1c-0.4,2.1-2,3.6-4.2,3.6c-1.1,0-1.9-0.3-2.5-1
		c-0.6-0.7-0.8-1.6-0.6-2.6c0.3-2.1,2.1-3.6,4.2-3.6c1.1,0,1.9,0.4,2.5,1C30,31.2,30.2,32.1,30.1,33.1"/>
	<path fill="#009CDE" d="M90.7,25.9H87c-0.3,0-0.6,0.2-0.6,0.5l-0.2,1l-0.3-0.4c-0.8-1.2-2.6-1.6-4.4-1.6c-4.1,0-7.6,3.1-8.3,7.5
		c-0.4,2.2,0.1,4.3,1.4,5.7c1.1,1.3,2.8,1.9,4.7,1.9c3.3,0,5.2-2.1,5.2-2.1l-0.2,1c-0.1,0.4,0.2,0.7,0.6,0.7h3.4
		c0.5,0,1-0.4,1.1-0.9l2-12.8C91.4,26.2,91.1,25.9,90.7,25.9 M85.5,33.1c-0.4,2.1-2,3.6-4.2,3.6c-1.1,0-1.9-0.3-2.5-1
		c-0.6-0.7-0.8-1.6-0.6-2.6c0.3-2.1,2.1-3.6,4.2-3.6c1.1,0,1.9,0.4,2.5,1C85.5,31.2,85.7,32.1,85.5,33.1"/>
	<path fill="#003087" d="M55.1,25.9h-3.7c-0.4,0-0.7,0.2-0.9,0.5L45.3,34l-2.2-7.3c-0.1-0.5-0.6-0.8-1-0.8h-3.7
		c-0.4,0-0.8,0.4-0.6,0.9l4.1,12.1L38,44.3c-0.3,0.4,0,1,0.5,1h3.7c0.4,0,0.7-0.2,0.9-0.5l12.4-18C55.9,26.5,55.6,25.9,55.1,25.9"/>
	<path fill="#009CDE" d="M95.1,19.2l-3.2,20.3c-0.1,0.4,0.2,0.7,0.6,0.7h3.2c0.5,0,1-0.4,1.1-0.9l3.1-19.9c0.1-0.4-0.2-0.7-0.6-0.7
		h-3.6C95.4,18.7,95.2,18.9,95.1,19.2"/>
</g>
</svg>
