<svg version="1.1" id="Layer_1" xmlns="http://www.w3.org/2000/svg" xmlns:xlink="http://www.w3.org/1999/xlink" x="0px" y="0px"
	 viewBox="0 0 98 30" width="98" height="30" style="enable-background:new 0 0 98 30;" xml:space="preserve">
<style type="text/css">
	.st0{fill:#0023A0;}
	.st1{fill:#FFA000;}
</style>
<g>
	<g>
		<polygon class="st0" points="34.5,29.6 39.4,0.5 47.3,0.5 42.4,29.6 		"/>
		<path class="st0" d="M71.1,1.2C69.6,0.6,67.1,0,64,0c-7.8,0-13.3,3.9-13.4,9.6c0,4.2,3.9,6.5,6.9,7.9c3.1,1.4,4.1,2.3,4.1,3.6
			c0,1.9-2.5,2.8-4.7,2.8c-3.2,0-4.9-0.4-7.5-1.5l-1-0.5l-1.1,6.5c1.9,0.8,5.3,1.5,8.8,1.6c8.3,0,13.7-3.9,13.8-9.9
			c0-3.3-2.1-5.8-6.7-7.9c-2.8-1.3-4.5-2.2-4.4-3.6c0-1.2,1.4-2.5,4.5-2.5c2.6,0,4.5,0.5,5.9,1.1L70,7.5L71.1,1.2"/>
		<path class="st0" d="M91.4,0.5h-6.1c-1.9,0-3.3,0.5-4.1,2.4L69.4,29.6h8.3c0,0,1.4-3.6,1.7-4.4c0.9,0,9,0,10.1,0
			c0.2,1,1,4.4,1,4.4h7.4L91.4,0.5 M81.7,19.3c0.7-1.7,3.2-8.1,3.2-8.1c0,0.1,0.7-1.7,1.1-2.8l0.5,2.5c0,0,1.5,6.9,1.8,8.4H81.7z"/>
		<path class="st0" d="M27.8,0.5l-7.8,19.8l-0.8-4c-1.4-4.6-5.9-9.7-11-12.2l7.1,25.4l8.4,0l12.5-29H27.8"/>
		<path class="st1" d="M12.9,0.5H0.1L0,1.1c9.9,2.4,16.5,8.2,19.2,15.2L16.5,3C16,1.1,14.6,0.6,12.9,0.5"/>
	</g>
</g>
</svg>
