<?xml version="1.0" encoding="utf-8"?>
<!-- Generator: Adobe Illustrator 19.0.0, SVG Export Plug-In . SVG Version: 6.00 Build 0)  -->
<!DOCTYPE svg PUBLIC "-//W3C//DTD SVG 1.1//EN" "http://www.w3.org/Graphics/SVG/1.1/DTD/svg11.dtd">
<svg version="1.1" id="VISA_Brand_Mark" xmlns="http://www.w3.org/2000/svg" xmlns:xlink="http://www.w3.org/1999/xlink" x="0px"
	 y="0px" viewBox="0 0 100 64" enable-background="new 0 0 100 64" xml:space="preserve">
<rect fill="#0023A0" width="100" height="64"/>
<g>
	<g>
		<polyline fill="#FFFFFF" points="37.2,42.7 40.7,21.3 46.2,21.3 42.8,42.7 37.2,42.7 		"/>
		<path fill="#FFFFFF" d="M62.8,21.8c-1.1-0.4-2.8-0.9-4.9-0.9c-5.5,0-9.3,2.9-9.3,7c0,3.1,2.7,4.8,4.8,5.8c2.1,1,2.9,1.7,2.9,2.7
			c0,1.4-1.7,2.1-3.3,2.1c-2.2,0-3.4-0.3-5.2-1.1L47,37.1l-0.8,4.8c1.3,0.6,3.7,1.1,6.1,1.1c5.8,0,9.6-2.9,9.6-7.3
			c0-2.4-1.4-4.3-4.6-5.8c-1.9-1-3.1-1.6-3.1-2.6c0-0.9,1-1.8,3.2-1.8c1.8,0,3.1,0.4,4.1,0.8l0.5,0.2L62.8,21.8"/>
		<path fill="#FFFFFF" d="M76.9,21.3h-4.3c-1.3,0-2.3,0.4-2.9,1.8l-8.2,19.6h5.8c0,0,0.9-2.6,1.2-3.2c0.6,0,6.3,0,7.1,0
			c0.2,0.7,0.7,3.2,0.7,3.2h5.1L76.9,21.3 M70.1,35.1c0.5-1.2,2.2-6,2.2-6c0,0.1,0.5-1.2,0.7-2l0.4,1.8c0,0,1.1,5.1,1.3,6.2
			C73.8,35.1,71.2,35.1,70.1,35.1z"/>
		<path fill="#FFFFFF" d="M32.6,21.3l-5.4,14.6l-0.6-3c-1-3.4-4.1-7.1-7.6-9l4.9,18.7l5.8,0l8.7-21.3H32.6"/>
		<path fill="#FFA000" d="M22.2,21.3h-8.9l-0.1,0.4c6.9,1.8,11.5,6,13.4,11.2l-1.9-9.8C24.4,21.8,23.4,21.4,22.2,21.3z"/>
	</g>
	<g>
		<path fill="#FFFFFF" d="M83.2,40.1c0.7,0,1.2,0.5,1.2,1.2c0,0.7-0.5,1.2-1.2,1.2s-1.2-0.5-1.2-1.2C81.9,40.7,82.5,40.1,83.2,40.1z
			 M83.2,42.4c0.6,0,1-0.5,1-1c0-0.6-0.4-1-1-1s-1,0.5-1,1C82.2,41.9,82.6,42.4,83.2,42.4z M82.7,40.7h0.5c0.1,0,0.4,0,0.4,0.3
			c0,0.1,0,0.2-0.2,0.3v0c0.2,0,0.2,0.2,0.2,0.3c0,0.2,0,0.2,0,0.3h-0.2c0,0,0-0.1,0-0.3c0-0.1,0-0.2-0.3-0.2h-0.2V42h-0.2V40.7z
			 M82.9,41.3h0.3c0.2,0,0.2-0.1,0.2-0.2c0-0.1-0.1-0.2-0.2-0.2h-0.2V41.3z"/>
	</g>
</g>
</svg>
