<?xml version="1.0" encoding="utf-8"?>
<!-- Generator: Adobe Illustrator 19.0.0, SVG Export Plug-In . SVG Version: 6.00 Build 0)  -->
<!DOCTYPE svg PUBLIC "-//W3C//DTD SVG 1.1//EN" "http://www.w3.org/Graphics/SVG/1.1/DTD/svg11.dtd">
<svg version="1.1" id="VISA_Brand_Mark" xmlns="http://www.w3.org/2000/svg" xmlns:xlink="http://www.w3.org/1999/xlink" x="0px"
	 y="0px" viewBox="-249 64 100 32" style="enable-background:new -249 64 100 32;" xml:space="preserve">
<style type="text/css">
	.st0{fill:#0023A0;}
	.st1{fill:#FFA000;}
</style>
<g>
	<g>
		<polyline class="st0" points="-215.3,94.6 -210.4,64.6 -202.7,64.6 -207.4,94.6 -215.3,94.6 		"/>
		<path class="st0" d="M-179.3,65.3c-1.5-0.6-3.9-1.3-6.9-1.3c-7.7,0-13.1,4.1-13.1,9.8c0,4.4,3.8,6.7,6.7,8.1s4.1,2.4,4.1,3.8
			c0,2-2.4,2.9-4.6,2.9c-3.1,0-4.8-0.4-7.3-1.5l-1.1-0.4l-1.1,6.7c1.8,0.8,5.2,1.5,8.6,1.5c8.1,0,13.5-4.1,13.5-10.3
			c0-3.4-2-6-6.5-8.1c-2.7-1.4-4.4-2.2-4.4-3.7c0-1.3,1.4-2.5,4.5-2.5c2.5,0,4.4,0.6,5.8,1.1l0.7,0.3L-179.3,65.3"/>
		<path class="st0" d="M-159.5,64.6h-6c-1.8,0-3.2,0.6-4.1,2.5l-11.5,27.5h8.1c0,0,1.3-3.7,1.7-4.5c0.8,0,8.8,0,10,0
			c0.3,1,1,4.5,1,4.5h7.2L-159.5,64.6 M-169.1,83.9c0.7-1.7,3.1-8.4,3.1-8.4c0,0.1,0.7-1.7,1-2.8l0.6,2.5c0,0,1.5,7.2,1.8,8.7
			C-163.9,83.9-167.5,83.9-169.1,83.9z"/>
		<path class="st0" d="M-221.8,64.6l-7.6,20.5l-0.8-4.2c-1.4-4.8-5.8-10-10.7-12.6l6.9,26.3h8.1l12.2-29.9L-221.8,64.6"/>
		<path class="st1" d="M-236.4,64.6h-12.5l-0.1,0.6c9.7,2.5,16.2,8.4,18.8,15.7l-2.7-13.8C-233.3,65.3-234.7,64.7-236.4,64.6z"/>
	</g>
	<g>
		<path class="st0" d="M-150.7,91c1,0,1.7,0.7,1.7,1.7s-0.7,1.7-1.7,1.7c-1,0-1.7-0.7-1.7-1.7C-152.5,91.8-151.7,91-150.7,91z
			 M-150.7,94.2c0.8,0,1.4-0.7,1.4-1.4c0-0.8-0.6-1.4-1.4-1.4c-0.8,0-1.4,0.7-1.4,1.4S-151.5,94.2-150.7,94.2z M-151.4,91.8h0.7
			c0.1,0,0.6,0,0.6,0.4c0,0.1,0,0.3-0.3,0.4l0,0c0.3,0,0.3,0.3,0.3,0.4c0,0.3,0,0.3,0,0.4h-0.3c0,0,0-0.1,0-0.4c0-0.1,0-0.3-0.4-0.3
			h-0.3v0.8h-0.3C-151.4,93.6-151.4,91.8-151.4,91.8z M-151.1,92.7h0.4c0.3,0,0.3-0.1,0.3-0.3s-0.1-0.3-0.3-0.3h-0.3v0.6H-151.1z"/>
	</g>
</g>
</svg>
